<svg viewBox="0 0 96 20" xmlns="http://www.w3.org/2000/svg" xmlns:xlink="http://www.w3.org/1999/xlink"><defs><path id="a" d="M0 0h104.3v52.5H0z"/></defs><g transform="translate(-5.9 -17.15)" fill="none" fill-rule="evenodd"><mask id="b" fill="#fff"><use xlink:href="#a"/></mask><g fill="#FFF" fill-rule="nonzero" mask="url(#b)"><path d="M12.746 21.11a7.29 7.29 0 0 0-2.34.709c.001-.387-.048-.773-.146-1.146-.48-1.857-1.997-3.234-3.845-3.49a3.906 3.906 0 0 0-.458-.033v11.579c-.037.918.08 1.836.343 2.713a1.872 1.872 0 0 0 1.33 1.272c.63.155 1.291-.04 1.746-.513l1.309-1.349a.208.208 0 0 0 .033-.252 3.543 3.543 0 0 1 .659-3.999 3.29 3.29 0 0 1 3.891-.615c1.29.68 2.013 2.135 1.794 3.61-.22 1.476-1.332 2.64-2.761 2.891a3.31 3.31 0 0 1-1.996-.286.219.219 0 0 0-.246.034l-1.309 1.348c-.981 1.011-.589 2.764.737 3.168a7.476 7.476 0 0 0 3.076.304c2.797-.294 5.225-2.118 6.35-4.773a8.228 8.228 0 0 0-.916-8.043c-1.692-2.314-4.463-3.51-7.25-3.128z"/><path d="M13.758 30.82a1.853 1.853 0 0 0 1.859-1.848c0-1.02-.833-1.847-1.86-1.847a1.853 1.853 0 0 0-1.858 1.847 1.855 1.855 0 0 0 1.859 1.847zM28.154 23.447c1.445 0 2.69.685 2.69 2.186a1.672 1.672 0 0 1-1.177 1.599c.851.232 1.441.984 1.445 1.843 0 1.664-1.412 2.12-2.925 2.12h-3.513v-7.748h3.48zm-2.522 3.328h2.538c.942 0 1.648-.343 1.648-1.142 0-.865-.706-1.322-1.715-1.322h-2.488l.017 2.464zm0 3.507h2.505c.824 0 1.95-.196 1.95-1.256 0-.979-1.042-1.37-1.9-1.37h-2.572v2.626h.017zM33.466 31.196h-.942v-7.75h.942zM37.786 25.6c1.714 0 2.925 1.175 2.925 2.871 0 1.664-1.244 2.806-2.925 2.806-1.681 0-2.925-1.174-2.925-2.806.033-1.696 1.277-2.87 2.925-2.87zm.033.832c-1.16 0-2.017.832-2.017 2.04 0 1.141.824 1.973 1.984 1.973a1.997 1.997 0 0 0 1.448-.563c.382-.374.588-.884.569-1.41 0-1.208-.857-2.04-1.984-2.04zM46.779 30.445a2.954 2.954 0 0 1-2.101.832c-1.597 0-2.959-1.011-2.959-2.838 0-1.827 1.295-2.839 2.959-2.839a2.8 2.8 0 0 1 2.034.832l-.589.604a2.1 2.1 0 0 0-1.412-.539c-1.126 0-2.017.75-2.017 1.974 0 1.256.925 1.974 2.017 1.974.552.006 1.083-.2 1.48-.57l.588.57zM48.88 28.047l2.303-2.3h1.16v.065l-2.605 2.513 2.925 2.805v.066h-1.16l-2.656-2.578v2.578h-.925v-7.75h.925v4.585h.033zM56.36 23.447h5.615v.897h-4.64v2.43h4.439v.898h-4.438v2.61h4.824v.914h-5.8zM64.934 28.39l-1.9-2.643v-.033h1.042l1.446 2.072 1.446-2.072h1.059v.033L66.11 28.39l2.068 2.79v.032H67.12l-1.597-2.202-1.597 2.202h-1.042v-.033zM69.22 25.747h.891l.067 1.06a2.515 2.515 0 0 1 2.152-1.142c1.63.033 2.807 1.142 2.807 2.806 0 1.73-1.176 2.839-2.874 2.839-.79 0-1.681-.343-2.135-1.126v3.557h-.925v-7.994h.017zm4.976 2.757c0-1.24-.824-1.958-1.984-1.958-1.16 0-1.983.832-1.983 1.958s.824 1.958 1.983 1.974c1.127-.033 1.984-.75 1.984-1.974zM77.508 31.196h-.942v-7.75h.942zM81.81 25.6c1.716 0 2.926 1.175 2.926 2.871 0 1.664-1.244 2.806-2.925 2.806-1.681 0-2.925-1.174-2.925-2.806 0-1.696 1.244-2.87 2.925-2.87zm.035.832c-1.16 0-2.018.832-2.018 2.04 0 1.141.824 1.973 1.984 1.973a1.997 1.997 0 0 0 1.449-.563c.382-.374.587-.884.568-1.41 0-1.208-.857-2.04-1.983-2.04zM86.988 25.714l.068.832c.386-.717 1.092-.913 1.748-.913.467-.013.924.131 1.294.408l-.42.766a1.672 1.672 0 0 0-.975-.293 1.643 1.643 0 0 0-1.186.47 1.544 1.544 0 0 0-.461 1.161v3.034h-.942v-5.465h.874zM95.83 30.315c-.554.652-1.53.979-2.42.979-1.748 0-2.959-1.126-2.959-2.872 0-1.664 1.21-2.838 2.925-2.838 1.715 0 3.043 1.028 2.807 3.214h-4.79c.084 1.011.941 1.631 2.034 1.631.655 0 1.412-.228 1.798-.685l.605.57zm-.537-2.251c-.068-1.06-.79-1.632-1.9-1.632-.975 0-1.832.571-2.017 1.632h3.917zM98.369 25.714l.067.832c.387-.717 1.093-.913 1.748-.913.467-.013.924.131 1.295.408l-.42.766a1.672 1.672 0 0 0-.976-.293 1.643 1.643 0 0 0-1.186.47 1.544 1.544 0 0 0-.461 1.161v3.034h-.941v-5.465h.874z"/></g></g></svg>