
<svg width="100%" height="100%" viewBox="0 0 211 40" version="1.1" xmlns="http://www.w3.org/2000/svg" xmlns:xlink="http://www.w3.org/1999/xlink">
    <defs>
        <rect id="path-1" x="0" y="0" width="228" height="115"></rect>
    </defs>
    <g id="Symbols" stroke="none" stroke-width="1" fill="none" fill-rule="evenodd">
        <g id="Logos-/-Freenode" transform="translate(-3.000000, -67.000000)">
            <g id="Group" transform="translate(-9.000000, 28.000000)">
                <mask id="mask-2" fill="white">
                    <use xlink:href="#path-1"></use>
                </mask>
                <g id="Rectangle-2"></g>
                <g id="coloured-alphabg" mask="url(#mask-2)" fill="#FFFFFF" fill-rule="nonzero">
                    <g transform="translate(12.000000, 39.000000)" id="Shape">
                        <path d="M180.825,0 C177.397984,1.68370522 174.03448,0.784489159 170.375,0.982720076 L170.375,2.9601832 L173.225,3.11037028 C174.417584,3.16467792 174.65,5.05801226 174.65,8.26028901 L174.65,14.8685202 L173.55,14.4429902 C172.032168,13.8459505 170.580208,13.5168366 169.225,13.5168366 C168.494736,13.4935275 167.785208,13.6511639 167.075,13.7921795 C165.391552,14.1543587 163.860472,14.7504211 162.525,15.5193309 C161.826624,15.9214237 161.172784,16.3770312 160.6,16.8710145 C158.914616,18.2314531 157.66916,19.8146091 157.1,21.4767514 C156.366176,23.0807494 156,25.0019264 156,27.3090161 C156.000008,34.7116849 159.660104,39.5193693 165.5,39.9497614 C165.749824,39.9681844 165.992256,39.9976611 166.25,39.9998238 C166.28304,40.0002243 166.31696,39.9998158 166.35,39.9998238 C166.581296,39.9998238 166.794824,39.9897312 167,39.9748326 C167.248256,39.9552883 167.502288,39.917321 167.75,39.8747079 C167.852152,39.8541223 167.95644,39.8505178 168.05,39.8246456 C168.690424,39.689317 169.322416,39.4711573 169.95,39.1738349 C171.834632,38.2809788 173.428672,36.7598921 174.65,34.7933786 C174.6436,34.8906358 174.375,38.8233984 174.375,38.8233984 L174.65,39.2489285 C177.902488,39.1403772 178.928712,39.0737102 179.525,39.0737102 C179.958664,39.0737102 180.932168,39.1445985 182.45,39.1988661 C182.829456,39.1988741 183.861624,39.1948611 185,39.2489285 L185,37.2464341 L183.2,37.1212783 C181.519552,37.012727 181.25,36.5978743 181.25,33.6669756 L181.25,0.325445375 L180.825,4.00498861e-05 L180.825,0 Z M168.575,16.9961704 C170.90596,16.9961704 172.861128,18.0915829 174.65,20.4254419 L174.65,30.3878511 C174.65,32.8302614 172.106456,34.8434009 169.125,34.8434009 C165.276208,34.8434009 162.825,31.1182489 162.825,25.2564594 C162.825,19.7745992 164.726216,16.9961704 168.575,16.9961704 Z"></path>
                        <path d="M30.8080206,13.0009112 C27.5993225,14.73648 24.4125627,14.019719 21,14.2513416 L21,16.2418226 L23.4211235,16.4204556 C24.6532204,16.5311222 24.8046226,18.1574942 24.8046226,21.4221771 L24.8046226,33.5436962 C24.8046226,36.5317042 24.5382555,36.9546498 22.877606,37.0653164 L21,37.1929114 L21,39.2344304 L27.9174957,39.0557975 C28.6138938,39.0557975 28.7642841,39.0684549 35.9961424,39.2344304 L35.9961424,37.1929114 L33.9208937,37.0653164 C31.6174072,36.9546498 31.3515381,36.642379 31.3515381,33.5436962 L31.3515381,22.5705315 C31.3515381,20.8551901 33.53636,19.0233923 35.6255622,19.0233923 C35.8943959,19.0233923 35.8538949,18.972681 36.0944499,19.0274753 C36.5707372,20.5605989 37.933136,21.702592 39.2078368,21.702592 C40.9192964,21.702592 42.3207098,19.7744018 42.3207098,17.3898831 C42.3207098,15.0974206 41.0254068,13.2442113 39.4054795,13.1026932 C39.0040908,13.0525535 38.6301508,13.0068806 38.2443285,13.0006173 C36.7452874,12.9762824 35.7341788,13.6666261 33.6985456,15.9353008 L31.3515381,18.5892755 L31.3515381,13.3323641 L30.8080206,13.0006173 L30.8080206,13.0009112 Z M54.7969074,13.0009112 C54.0056803,13.0009112 53.3082623,13.0836336 52.6475426,13.2305821 C52.4326496,13.2783537 52.2118353,13.3192575 52.0052038,13.383696 C48.3944845,14.3916266 45.518253,16.5076856 44.1489051,19.1765062 C43.0039449,21.0748821 42.4689419,23.4817513 42.4689419,26.5514936 C42.4689419,35.349534 46.7656633,40 54.7474967,40 C57.8009425,40 59.7621197,39.412753 63.1967235,37.6267342 C64.5260527,36.9354758 65,36.5472851 65,36.5472851 L63.740241,34.1306329 C61.2224782,35.5692995 59.6078556,36.0700759 57.4650843,36.0700759 C54.679476,36.0700759 52.0597611,34.5194933 50.720526,32.1401519 C49.8634127,30.5908104 49.5429864,29.3308094 49.4358482,26.7301265 L56.4521652,26.7301265 C59.505619,26.7301265 61.9262128,26.4074767 64.9260974,25.63281 L64.9260974,22.7491645 C64.9260974,16.8284735 60.9038148,13.0009112 54.7969074,13.0009112 Z M53.6604616,16.1142277 C56.7139154,16.1142277 58.000285,18.3174187 58.1074231,23.7954429 L53.611051,23.9485569 L53.3887029,23.9485569 C53.0672884,23.9485487 51.6228837,23.9018469 50.8193474,23.8464809 L49.1146788,23.7954429 C49.275386,18.3174187 50.5534388,16.1142277 53.6604616,16.1142277 Z"></path>
                        <path d="M105.102102,13.0000408 C99.4910502,14.8814429 97.9673865,13.7272288 95,13.8932342 L95,15.8837794 L97.4384384,16.0624181 C98.6793389,16.1730883 98.8318318,18.1567901 98.8318318,21.4215782 L98.8318318,33.543488 C98.8318318,36.5315924 98.5635598,36.9545516 96.8910339,37.0652218 L95,37.1928209 L95,39.2344057 L101.966967,39.055767 C103.046019,39.055767 105.642587,39.123711 109.2574,39.2344057 L109.2574,37.1928209 L107.366366,37.0652218 C105.693832,36.9545516 105.425568,36.5316006 105.425568,33.543488 L105.425568,21.5236574 C105.425568,19.5869202 107.629957,17.7722453 110.003861,17.7722453 C113.564722,17.7722453 115.079794,19.6998444 115.079794,24.1266781 L115.079794,39.2344057 C118.155085,39.1237355 119.068546,39.055767 119.931789,39.055767 C120.687128,39.055767 120.687088,39.0684248 125.380952,39.2344057 L125.380952,37.1928209 L123.614329,37.0652218 C121.941803,36.9545516 121.673531,36.5316006 121.673531,33.543488 L121.673531,23.2334847 C121.673531,18.9726564 121.185262,16.8717349 119.782497,15.3223436 C118.379732,13.8282955 116.1559,13.0000408 113.512227,13.0000408 C112.175779,13.0000408 111.063389,13.2319404 110.227799,13.7145955 C110.177876,13.7434227 110.126368,13.7604903 110.078507,13.7911141 C108.207825,14.7294592 106.630822,15.9700813 105.425568,17.3638875 L105.425568,13.3317575 L105.102102,13 L105.102102,13.0000408 Z M140.58387,13.0000408 C132.005431,13.0000408 127.271986,17.880335 127.271986,26.6786591 C127.271986,35.2003076 131.690835,40 139.513943,40 C148.146333,40 153,34.9794735 153,26.015144 C153,17.6041657 148.568834,13.0000408 140.58387,13.0000408 Z M139.936937,15.6541011 C143.821511,15.6541011 145.659803,19.5906686 145.659803,27.7249713 C145.659803,34.475888 144.153106,37.3459397 140.484341,37.3459397 C136.599768,37.3459397 134.612184,33.3199263 134.612184,25.351629 C134.612184,18.6560474 136.21422,15.6541011 139.936937,15.6541011 Z"></path>
                        <path d="M16.4472433,5.2387448e-05 C15.7096277,-0.00315161336 15.1469114,0.141092503 14.5093506,0.300427463 C9.43954501,1.60913363 5.61220887,5.01593969 4.79504224,9.18652346 C4.54048066,10.1436546 4.47206012,11.3255785 4.47206012,13.0913994 L4.47206012,15.4193063 C3.07139499,16.3962782 2.00136815,17.003949 0.223603006,17.8723694 L0.223603006,19.1739947 L4.47206012,18.8986509 L4.47206012,33.6670921 C4.47206012,36.6522677 4.20443615,37.012854 2.21118528,37.1214055 L0,37.2465618 L0,39.2490623 C6.57234627,39.086235 6.57893709,39.0738435 7.60250221,39.0738435 C8.35670223,39.0738435 8.36255367,39.086259 16.1739508,39.2490623 L16.1739508,37.2465618 L13.7391625,37.1214055 C12.2846259,37.0670977 11.3666094,36.6921575 11.2049951,36.095124 C11.0972522,35.606642 11.0559264,34.9697187 11.0559264,33.6670921 L11.0559264,18.8986509 L17.7391718,18.8986509 L18.3106017,15.7447126 L18.1118435,15.3191813 C14.6101846,15.4820086 13.264663,15.5194313 11.0559264,15.5194313 L11.0559264,9.66211733 C11.0559264,7.59962992 11.2005668,6.6380452 11.5776668,5.93246014 C11.9696816,5.19190341 12.8295176,4.77740183 13.9130759,4.70592858 C14.2234886,5.5541958 14.5548265,6.27189198 14.8820223,6.65836657 C16.1954246,8.20974376 18.5099165,8.38212702 20.0497362,7.05886667 C21.4200311,5.88129224 21.7196074,3.91727179 20.8447691,2.40305299 C20.4036213,1.46907074 19.6409303,0.718709769 18.7081182,0.32545872 C17.9846223,0.0224723831 17.2152372,0.0227607432 16.4472433,5.2387448e-05 Z M81.7393212,13.5169308 C80.9436284,13.5169308 80.2422742,13.5980721 79.5778254,13.7422121 C79.3617196,13.7890706 79.1396589,13.8291927 78.9318612,13.8923996 C75.300763,14.8810662 72.4082981,16.956682 71.0312216,19.5744948 C69.8797993,21.436588 69.3417767,23.797456 69.3417767,26.8085279 C69.3417767,35.438416 73.6627488,40 81.6896316,40 C84.760319,40 86.7325572,39.4239767 90.1865458,37.6720932 C91.5233778,36.9940465 92,36.613275 92,36.613275 L90.733131,34.242811 C88.2011578,35.6539812 86.5774224,36.1451865 84.4225572,36.1451865 C81.621227,36.1451865 78.9867264,34.6242393 77.6399327,32.2903731 C76.7779819,30.7706434 76.4557471,29.5347241 76.3480042,26.9837467 L83.4039213,26.9837467 C86.4746087,26.9837467 88.9088643,26.6672635 91.9256803,25.9074027 L91.9256803,23.0788707 C91.9256803,17.2713389 87.880696,13.5169308 81.7393212,13.5169308 Z M80.5964613,16.5707441 C83.6671488,16.5707441 84.9607786,18.7318266 85.0685215,24.1051522 L80.5467718,24.2553398 L80.3231688,24.2553398 C79.9999402,24.2553318 78.5473912,24.2095226 77.7393118,24.1552147 L76.0250221,24.1051522 C76.1866364,18.7318266 77.4719025,16.5707441 80.5964613,16.5707441 Z"></path>
                        <path d="M200.584549,13 C199.776854,13 199.064921,13.0827251 198.390449,13.2296786 C198.171084,13.2774518 197.945674,13.3183571 197.734741,13.3827977 C194.048872,14.3907623 191.112777,16.5068927 189.714929,19.1758034 C188.546138,21.0742433 188,23.4811938 188,26.5510397 C188,35.3493771 192.38615,40 200.53411,40 C203.651116,40 205.653103,39.4127332 209.159192,37.6266541 C210.516188,36.9353724 211,36.5471685 211,36.5471685 L209.714022,34.1304348 C207.143856,35.5691499 205.495628,36.0699433 203.308259,36.0699433 C200.464674,36.0699433 197.790434,34.5193083 196.423325,32.1398866 C195.548373,30.5904929 195.221278,29.3304493 195.111909,26.7296786 L202.274258,26.7296786 C205.391264,26.7296786 207.862238,26.4070179 210.924559,25.6323251 L210.924559,22.7485822 C210.924559,16.8276915 206.81856,13 200.584549,13 Z M199.42445,16.1134216 C202.541456,16.1134216 203.854599,18.3166869 203.963967,23.794896 L199.374011,23.9480151 L199.147035,23.9480151 C198.818931,23.948007 197.344472,23.9013036 196.524204,23.8459357 L194.784055,23.794896 C194.948108,18.3166869 196.252761,16.1134216 199.42445,16.1134216 Z"></path>
                    </g>
                </g>
            </g>
        </g>
    </g>
</svg>