
<svg width="100%" height="100%" viewBox="0 0 137 138" version="1.1" xmlns="http://www.w3.org/2000/svg" xmlns:xlink="http://www.w3.org/1999/xlink">
    <g id="Symbols" stroke="none" stroke-width="1" fill="none" fill-rule="evenodd">
        <g id="Logos-/-Provocateur" transform="translate(-3.000000, -17.000000)" fill="#FFFFFF" fill-rule="nonzero">
            <g id="Group" transform="translate(3.000000, 17.000000)">
                <g id="ProvocateurMasterLogo_Black-01">
                    <path d="M112.483522,59.0020749 C112.323649,58.9874073 112.165688,59.0509717 112.046502,59.1779342 C111.609482,60.3106747 111.858583,61.5572066 111.644444,62.7985661 C110.197908,63.3675225 111.032616,65.4881784 110.093023,66.5226446 C110.289682,68.4467519 109.153431,69.869143 109.188392,71.8087672 C109.725927,71.7208376 109.857033,71.0536069 109.988139,70.4949951 C110.23287,69.4243225 110.534413,68.6277835 110.69174,67.5364216 C111.491487,67.0191884 110.783515,65.7674843 111.294828,65.1002535 C111.3429,65.3899041 111.386602,65.6588653 111.443415,65.9329989 C111.369121,67.4588366 110.569375,68.7053684 110.739813,70.2622402 C110.844697,72.4863426 108.388646,73.288054 108.786334,75.6569817 C108.580935,76.1742149 108.148285,76.5673121 108.03466,77.1362685 C107.925517,77.5142062 108.082051,77.927664 108.393016,78.0828051 C108.598415,78.1914241 108.69456,77.9276352 108.830036,77.8500502 C109.319498,77.2293705 109.035435,76.1483532 109.826441,75.7811177 C109.903124,76.3451621 109.711731,76.9134538 109.328239,77.2604045 C109.402532,78.6983126 108.017179,79.5724366 108.323093,81 C108.878108,80.6431091 108.869368,79.8000191 109.280166,79.2776137 C110.088653,76.6190354 111.434674,74.2035566 112.033391,71.4570487 C112.004294,71.0866063 111.9184,70.725541 111.77992,70.3915485 C112.417969,69.010536 112.391748,67.231254 112.579666,65.7054163 C113.235196,64.0140639 112.579666,62.110646 112.981724,60.3106747 C113.10409,59.627927 112.575296,59.5244804 112.483522,59.0020749 Z" id="Shape"></path>
                    <path d="M113.154134,52.1071975 C113.28964,53.397047 113.363394,54.6987219 113.374879,56.0030628 C113.362741,56.0965459 113.340048,56.1865526 113.307696,56.2695253 C113.288501,56.4762634 113.157333,56.9816233 113.416469,57 C113.503583,56.9414296 113.579375,56.8530955 113.637214,56.7427259 C113.97313,55.6079632 113.73319,54.1332312 113.595624,52.8376723 C113.458058,52.194487 113.477254,51.2159265 113.045361,51 C113.032565,51.3353752 112.901397,51.8820827 113.154134,52.1071975 Z" id="Shape"></path>
                    <path d="M111.265072,46.757995 C111.717182,45.3732903 110.740624,44.4895368 110.387978,43.3931152 C110.134796,43.1804473 110.039853,42.6936739 109.764066,42.6936739 C109.764066,42.9063419 109.958473,43.1284618 109.813798,43.3458557 C109.361688,43.0622984 109.660081,42.4526502 109.361688,42.0934777 C109.266516,41.9920783 109.117821,41.9707064 109,42.0414922 C109.076859,42.5140877 109,43.2229809 109.361688,43.6672206 C109.447589,44.3288543 109.994642,44.7967238 110.089585,45.4583575 C110.604991,46.3751927 110.265908,47.7362677 111.170129,48.435709 C111.287677,49.0028235 111.278635,49.7069908 111.794041,50 C112.022644,49.6715905 112.064118,49.2398623 111.902547,48.8704968 C111.920631,48.1426998 111.920631,47.1266195 111.265072,46.757995 Z" id="Shape"></path>
                    <path d="M111.624787,42.4479531 C111.926369,42.9856285 111.660977,44.0172659 112.794924,43.9997805 C112.831114,43.916725 112.96381,43.9997805 113,43.9079823 C113,43.1386256 112.469216,42.53538 112.233982,41.8490789 C111.896211,42.0108186 111.805736,41.5474561 111.546376,41.7004531 C111.262889,41.1059502 110.768295,40.5726462 110.442587,40 C110.346663,40.0935072 110.18169,40.1350939 110.026404,40.1049123 C109.881645,40.4895906 110.376239,40.8086988 110.442587,41.2064912 C110.949244,41.5824268 110.804485,42.2862134 111.624787,42.4479531 Z" id="Shape"></path>
                    <path d="M110.455627,54.9587595 C110.88282,54.4698165 110.9267,53.7061411 110.558965,53.1602826 C110.375775,53.1288224 110.18319,52.8718971 110,53.081632 C110.084549,53.8209476 109.948331,54.361015 110.211373,54.9954632 C110.294266,55.007715 110.378587,54.9950443 110.455627,54.9587595 Z" id="Shape"></path>
                    <path d="M109.673407,49.0647131 C109.192994,48.481431 109.424304,47.9634764 109.130718,47.300868 C108.089825,46.6382595 108.596927,45.322375 108.07648,44.4311199 C107.991963,43.4278746 107.685033,44.0578193 107.760653,42.9939127 C107.684128,42.6533065 107.578423,42.3206499 107.444826,42 C107.400344,42.4666257 107.048931,41.7620209 107,42.2193141 C107.889653,44.160477 108.174342,46.3536178 108.823788,48.3927721 C108.507962,49.4893425 109.397614,50.3992626 109.233029,51.495833 C109.290856,51.7991397 109.548855,52.1584415 109.891372,51.9251286 C110.07375,51.8831323 109.508821,51.0198748 109.660062,50.9078846 C110.198302,50.025962 110.015923,49.8953068 109.673407,49.0647131 Z" id="Shape"></path>
                    <path d="M105.166687,38.9901908 C104.632999,38.2151075 104.845486,38.1159689 103.975772,37.6383013 C103.837408,37.3003289 103.580448,37.151621 103.481616,36.804636 C103.224655,36.8316738 102.928162,36.4441321 102.631669,36.290918 C101.855844,36.3855503 101.855844,35.5428724 101.33204,35.3581142 C100.640222,35.1958874 99.7260339,34.736245 99.068807,35.2049 C98.8760863,35.4572528 99.1330472,35.430215 99.291177,35.5744165 C99.9286377,35.4392276 100.437618,35.9033763 101.045429,35.9799834 C101.514877,36.7956234 102.715675,37.1921777 103.254305,37.9942988 C103.456909,38.3052335 103.847292,38.7783948 104.277207,38.661231 C104.534788,39.1995608 104.923476,39.6773005 105.413765,40.0581836 C105.3754,40.1235671 105.353457,40.1959113 105.349525,40.2699796 C105.690492,40.7206095 105.754732,40.5268386 105.996868,41 C106.041342,40.5493701 105.596602,40.0581836 105.646018,39.61206 C105.418506,39.4558927 105.250779,39.2382881 105.166687,38.9901908 Z" id="Shape"></path>
                    <path d="M94.1292715,31.005109 C94.0864494,30.998297 94.0428221,30.998297 94,31.005109 L94.1292715,31.005109 Z" id="Shape"></path>
                    <path d="M93.7924128,30.4171929 C93.8191227,30.4132634 93.8463348,30.4132634 93.8730447,30.4171929 C93.9255217,30.4088786 93.9673502,30.3719794 93.978874,30.3238349 C94.0746244,30.0951079 93.8176103,30.1651264 93.7520969,30.0017499 C93.2056468,29.9876665 92.6605225,30.0586722 92.1394592,30.2118054 C91.3015243,30.291715 90.482076,30.4917071 89.7104237,30.8046285 C88.6571698,30.9166581 87.8558905,31.5981713 86.9336633,31.9809391 C86.3294958,32.175696 85.7485733,32.4275335 85.2000778,32.7324708 C84.5399043,33.1339101 84.2677717,33.8154233 83.5824007,34.0674899 C83.7033485,34.7023241 82.8970297,34.660313 82.5745022,35.0337449 C82.3190161,35.3194443 82.1240977,35.6472774 82,36 C82.337646,35.677915 82.7710424,35.35583 83.1590833,35.0337449 C84.9481032,34.8610327 85.6183557,32.8538361 87.482968,32.8351646 C87.810535,32.5924338 88.6773278,32.5130795 88.3497607,31.8689095 C89.9019245,31.1267136 91.7766157,30.4685398 93.4346088,30.5945731 C93.3839429,30.6331133 93.3382815,30.6769743 93.2985425,30.7252743 C93.4143849,30.7124601 93.5197577,30.6569274 93.5908331,30.5712336 C93.5605961,30.4545361 93.6765045,30.4171929 93.7924128,30.4171929 Z" id="Shape"></path>
                    <path d="M108.996173,35.8421371 C108.401538,35.0427219 107.487831,34.4087029 106.782005,33.7379291 C106.65631,33.8068442 106.627303,33.6184763 106.501608,33.6873914 C105.834457,33.2279573 105.128631,32.400976 104.234262,32.2631458 C104.007044,32.5985327 104.413135,32.7593346 104.335785,33.0533724 C104.200421,33.1039101 104.147242,32.9568913 104.002209,32.993646 C103.876514,32.400976 103.088502,32.4607025 102.735589,31.9461363 C102.735589,31.6475042 102.798437,31.3121173 102.455192,31.1559098 L102.024928,31.0134852 C101.667109,30.9665149 101.303435,31.0431368 101.00003,31.2294192 C100.999124,31.3152478 101.018972,31.4001276 101.058043,31.4775136 C101.444548,31.5393495 101.822433,31.6426154 102.184464,31.7853344 C102.619563,32.4974572 103.774991,32.4652968 103.900686,33.3657876 C104.732208,34.0779103 105.375186,34.491401 106.23088,35.152986 C106.636972,35.1943351 106.883528,35.8053824 107.168759,35.9432126 C107.263229,36.3412026 107.476393,36.7048855 107.782731,36.9907222 C107.845579,36.9907222 107.961605,37.0320713 108.000281,36.9401845 C108.343525,36.3750806 107.613526,36.2785995 107.33313,35.9937503 C107.405646,35.7548446 107.197766,35.4378351 107.279951,35.2035238 C107.956771,35.6078257 108.092135,36.4577787 108.880146,36.7334392 C109.088027,36.5037221 108.952663,36.1315806 108.996173,35.8421371 Z" id="Shape"></path>
                    <path d="M106.292185,81.3609712 C106.134511,81.1969216 106.336531,81.0533783 106.346386,80.8893287 C106.459581,80.6738257 106.409986,80.4050729 106.22813,80.2485102 C105.592507,80.2485102 104.646463,79.6435774 104.257206,80.602242 C103.951712,81.6839437 102.779012,82.1043207 102.443955,83.1655163 C102.50801,83.4628561 102.56221,83.7601959 102.611483,84.0472826 C102.223245,85.286065 101.592418,86.4276681 100.758814,87.4000454 C100.60114,87.5640949 100.463175,87.3539064 100.300574,87.3436533 C100.650413,86.5592914 100.670122,85.8569543 101.202272,85.1597437 C101.157926,84.8726569 101.414146,84.8726569 101.488056,84.6470888 C101.783695,82.5298243 103.798965,81.3045792 104.08475,79.1770615 C104.015008,79.0535765 103.88137,78.9850636 103.744765,79.0027589 C103.051706,79.8603413 102.411517,80.7627093 101.828041,81.7044499 C101.763986,81.9146384 101.414146,82.4631791 101.936442,82.4119136 C101.532402,84.7034808 99.2116379,86.1696737 98.3838495,88.2869383 C98.3000852,88.5176329 98.0438649,88.9021241 98.3838495,89.1123126 C98.4731132,89.113426 98.556739,89.0670222 98.6055785,88.9892754 C98.8273076,89.2199701 99.0194727,88.8149728 99.1672921,88.8662383 C99.1783959,88.968768 99.1595057,89.0723979 99.1130917,89.1635781 C97.5018606,90.7528081 97.0682571,93.0443753 95.5013719,94.7412629 C95.0086407,95.4589797 95.3732618,96.4073911 94.6538742,96.9815646 C94.161143,98.6784522 92.53513,99.7499008 92.1113811,101.50318 C90.6923152,102.82583 89.8103264,104.502211 89.0071745,106.147833 C88.4257517,107.362825 87.2481241,108.331743 87.0904501,109.736417 C87.0461043,109.869708 86.9081395,109.736417 86.868721,109.859455 C85.8542682,112.087828 84.7021502,114.245496 83.4196026,116.318906 C82.6657238,118.369525 81.1924575,120.168944 80.2513409,122.07602 C80.2800556,122.347389 80.1719789,122.614935 79.9655568,122.783483 C78.8864754,124.018982 78.3888169,125.495428 76.9254052,126.243904 C76.3094912,127.161556 75.3585199,127.910032 75.343738,129.068632 C76.1616718,128.817431 76.3932555,127.5563 77.1471342,127.12567 C76.9648237,128.043322 76.2060176,128.832811 75.9054516,129.770969 C75.1515728,131.637033 74.6637689,134.051637 75.2796829,136.056118 C75.5753217,137.204464 77.112643,138.260533 77.2506078,137.942687 C77.7187024,138.229774 78.5415636,136.035611 79.054004,135.65112 C80.1133761,136.368837 79.2461692,134.723215 79.9557021,134.589925 C80.064103,134.887264 80.3695964,131.513996 80.5814708,130.355396 C80.7271698,129.735715 80.9148775,129.127551 81.1431844,128.535471 C81.3156403,128.755912 81.05942,128.930215 81.1431844,129.186542 C81.2839602,129.130725 81.3763891,128.989545 81.374768,128.832811 C81.7985169,128.832811 81.7147526,128.125347 81.8674992,127.776742 C82.9909264,126.3977 83.6265497,124.787964 84.5183932,123.311518 C85.8438401,122.255449 86.0852784,120.522675 86.8933576,119.143634 C86.7652475,118.349019 87.2234875,117.667188 87.7408553,117.093014 C88.194168,115.503784 89.2486128,114.170882 89.8300356,112.627791 C90.0590166,112.257819 90.24743,111.862316 90.3917492,111.448685 C90.8844804,110.090149 91.8945794,108.859778 92.1507996,107.455103 C92.4980472,106.917721 92.7997484,106.349956 93.0524978,105.758216 C93.0524978,105.460876 93.4861012,105.363471 93.4466827,105.050752 C93.8408677,104.538097 94.0083963,103.928038 94.4666363,103.461522 C94.6686561,102.866842 95.2205151,102.436212 95.1958785,101.754381 C95.6393366,101.169955 95.6491912,100.411226 96.1074313,99.8114194 C96.7430545,98.873261 97.0928937,97.817192 97.7383716,96.8790336 C98.0117577,95.9505369 98.4313522,95.0756827 98.9800542,94.2901266 C98.9800542,93.8697496 99.3200388,93.6082956 99.433367,93.2648169 C99.5348749,93.2017871 99.5995404,93.090294 99.6058229,92.9674771 C100.17966,92.389603 100.656037,91.7154651 101.015034,90.9732497 C101.108653,91.1167931 101.05938,90.8502125 101.079089,90.7938205 C101.392997,90.065701 101.750094,89.3585831 102.148316,88.676556 C102.330626,87.9280799 103.503327,87.5282091 102.931759,86.6823286 C102.995814,85.7134109 104.163587,85.6877782 104.409952,84.7957587 C104.464153,84.565064 104.587335,84.0370295 104.188223,84.0370295 C104.240924,83.4712621 104.526693,82.9570209 104.971666,82.6272287 C105.045575,82.6272287 105.163831,82.5810897 105.203249,82.6836207 C105.848727,83.555134 104.843556,84.4471534 104.409952,85.2110091 C104.271987,85.3340463 104.503571,85.4109445 104.291697,85.508349 C104.336043,85.6929047 104.198078,85.9799914 104.409952,86.0927755 C105.227886,85.508349 105.577725,84.5035454 105.986692,83.6320322 C106.124657,83.7755756 105.932492,84.0934216 106.154221,84.144687 C106.617768,83.7122198 106.867838,83.0843904 106.83419,82.4375464 C106.660466,82.5502668 106.523172,82.7145391 106.440005,82.9091888 C106.321749,82.7451393 106.57797,82.6015959 106.494205,82.396534 C106.750425,82.1555862 106.63217,81.7454623 106.88839,81.5147676 C107.277648,80.602242 106.543478,81.284073 106.292185,81.3609712 Z" id="Shape"></path>
                    <path d="M108.694784,76 C108.085781,76.8059769 107.542469,77.65224 107.069291,78.531866 C106.877768,78.7665487 107.113489,79.1321123 107.40814,78.951587 C107.40814,78.048961 108.454152,77.6788844 108.881397,76.9342179 C108.964567,76.8298468 109.006178,76.7023769 108.999257,76.5731675 C108.621121,76.4197211 108.95997,76.1940646 108.694784,76 Z" id="Shape"></path>
                    <path d="M106.871139,87 C105.841253,87.2679554 105.529892,88.3344177 105.074827,89.0954109 C105.152667,89.3848027 104.661675,90.2154643 105.487978,89.947509 C106.362184,89.3044161 106.595704,88.3397768 106.931016,87.4340877 C106.937004,87.30011 107.116635,87.1286186 106.871139,87 Z" id="Shape"></path>
                    <path d="M104.478609,90.0397483 C104.317303,90.1440618 104.184131,90.2751063 104.087633,90.4244794 C104,90.5192682 103.912367,90.8092105 104.175265,90.8092105 C104.438163,90.8092105 104.377494,90.5806022 104.640392,90.5582989 C104.728024,90.4244794 105.04485,89.8445948 104.478609,90.0397483 Z" id="Shape"></path>
                    <path d="M98.0031365,35.3400517 C98.112344,35.6297524 98.3597873,35.8146471 98.6308456,35.8090886 C99.0426228,35.5687072 98.6308456,35.2227925 98.455087,35 C98.3195019,35.1407111 97.9629631,34.9648222 98.0031365,35.3400517 Z" id="Shape"></path>
                    <path d="M94.6219877,96.0187096 C94.5250266,96.4310594 94.2470713,96.5819191 94.1436461,96.9942688 C94.1436461,97.3161028 93.8204423,97.7737105 94.1436461,98 C94.418642,97.6803937 94.6248725,97.2385406 94.735109,96.7327787 C94.6995566,96.4763173 94.983976,95.8879645 94.6219877,96.0187096 Z" id="Shape"></path>
                    <path d="M92.9998524,31.4670343 C92.5834029,30.6854799 91.8618799,31.1239129 91.3340543,31.1112047 C90.5834767,31.7466148 89.5229831,31.5750541 89,32.6298349 C89.0875105,32.7857317 89.2020426,32.9120588 89.3341281,32.9983727 C90.4575733,33.0364973 91.3631089,32.3947331 92.384863,32.1215068 C92.539821,31.7656771 93.0095373,31.9308837 92.9998524,31.4670343 Z" id="Shape"></path>
                    <path d="M92.1997501,35.7509533 C92.4372593,35.6713141 92.6522809,35.4424437 92.807947,35.1035849 C92.5346991,34.804177 92.2790801,35.2249665 92.0499044,35.4677297 C91.9176877,35.7347691 92.0763478,35.8075981 92.1997501,35.7509533 Z" id="Shape"></path>
                    <path d="M87.1354587,37.9659179 C87.4110446,38.1177136 87.7021566,37.7265479 87.9117571,37.4988545 C88.3620102,37.3762503 88.5133884,36.5296977 89.0218639,36.634787 C89.2741609,36.0042513 90,35.9341918 90,35.0876392 C89.6118508,34.784048 89.1965311,35.3912305 88.754041,35.0876392 C88.0941873,35.7298515 87.9195201,36.7457146 87.201444,37.3003525 C87.1703921,37.5280459 86.8094133,37.866667 87.1354587,37.9659179 Z" id="Shape"></path>
                    <path d="M86.6218484,37 C86.3542696,37.1425884 86.1340618,37.4030385 86,37.7354893 C86.2586889,38.0000074 86.4726048,37.4451646 86.7362685,37.7354893 C86.7810416,37.5225845 86.9203356,37.03871 86.6218484,37 Z" id="Shape"></path>
                    <path d="M74.3654695,108.573098 C73.0941033,107.80765 71.9743608,106.819911 71.0609965,105.658179 C69.2057636,103.692894 67.0935732,102.707713 65.469602,100.534219 C64.5496943,99.5185684 63.3162985,98.0204831 61.7539971,98.2083786 C62.1085984,99.091995 63.0798976,99.4627076 63.7017347,100.18382 C63.7017347,100.18382 63.6554823,100.229524 63.645204,100.249837 C62.5300086,99.7013856 61.6666315,98.5587782 60.5154621,98.0865005 C60.4280966,98.0865005 60.340731,97.9544658 60.2842004,98.0865005 C59.2101182,98.0306396 58.9017692,96.8727974 57.8739393,96.7001368 C57.7094866,96.2735633 57.1339018,96.3497372 56.8101354,96.0551983 C56.1574635,94.9176692 54.9754591,94.4809392 54.2765348,93.3789578 C53.0842522,92.5054979 52.8272947,91.093743 51.7326559,90.179657 C51.4448636,90.1034832 51.218741,90.4640393 51.0234533,90.1136397 C50.9155312,88.6917282 49.7540834,87.8639726 49.0243242,86.6858174 C47.6521714,85.8123575 47.1896479,84.2838026 46.2594619,83.0802561 C45.9254172,82.6435262 45.1442665,82.2728136 45.195658,81.6177186 C44.8770308,80.8204326 43.9674013,80.2415115 43.7258613,79.4086776 C42.235508,76.7781414 39.7841338,74.5691003 38.4530941,71.857312 C38.1447452,70.7451741 37.3173421,69.3181844 36.9524625,68.2263595 C36.0325548,66.4235789 36.6852268,64.2196161 35.9246327,62.2340183 C34.110513,58.7503352 34.0025908,54.5861658 32.630438,50.9399786 C32.5841856,50.3610575 32.5533507,49.5333019 31.977766,49.1930588 C32.0548532,48.2535815 31.6128864,47.4461389 31.6899736,46.572679 C31.4227379,45.0492025 31.1349455,43.3175174 31.5152426,41.7432583 C31.4021813,40.0623558 31.2068936,38.4880967 31.4484336,36.7970377 C31.7824783,36.5786727 31.5717732,36.1419427 31.6231647,35.8118561 C32.1011056,34.9383962 31.6899736,33.8973539 31.977766,32.9477202 C32.1679145,31.4750261 31.977766,29.900767 32.805169,28.5905771 C33.0055959,27.8694649 32.4968201,27.1026484 32.9130912,26.4373969 C33.2214401,24.4060948 33.2111618,22.3747927 33.940921,20.4399774 C34.2081568,19.6528479 34.3263572,18.799701 34.8248547,18.1141365 C34.9481943,17.2051288 35.4775267,16.4637036 35.8526846,15.6664175 C35.765319,14.3663841 37.0809413,13.7976196 37.4355426,12.6956382 C37.8118045,11.3310415 38.7545443,10.1873327 40.030813,9.5471199 C40.8477182,8.81238327 41.8127592,8.25683414 42.8624842,7.91699996 C44.3783367,7.56785786 45.9676727,7.71030719 47.3952139,8.32326038 C48.5748609,8.63482849 49.705721,9.10470866 50.7562176,9.71978058 C52.0512832,10.4205798 52.7656249,11.7866305 54.0504123,12.5178992 C54.3587612,11.7307697 53.4953841,11.1721616 53.1099479,10.5932405 L53.1664786,10.5373797 C53.629002,10.8522315 53.8962378,11.2584919 54.3484829,11.5835003 C56.0855154,14.2140365 58.7938471,16.4027645 59.9398774,19.317683 C60.479488,21.5673501 62.509452,23.1974701 63.3574117,25.3151025 C64.4520505,27.9456387 65.4130714,30.637114 66.5950757,33.2371807 C67.3065329,34.8859676 67.8973393,36.5830776 68.3629431,38.315436 C68.9488061,39.8135213 69.8532964,41.1795719 70.1308104,42.7944571 C70.9839092,44.1605078 70.8708479,45.775393 71.3693454,47.2176175 C70.9736309,48.2332685 70.7372301,49.3149369 70.4288811,50.3610575 C70.49569,51.0161524 70.0537232,51.5188997 70.1308104,52.1079773 C70.3415156,52.1638381 70.2747066,52.0013339 70.4288811,51.9353166 C70.4799329,51.8874404 70.5506342,51.8657844 70.6201391,51.8767336 C70.6896441,51.8876828 70.7500262,51.9299886 70.7834824,51.9911774 C70.4083245,53.2912108 69.9663577,54.8096091 70.4854117,56.1858163 C70.9273786,57.1049805 71.8678429,57.2877977 72.7209417,57.4655366 C72.8463462,57.1688805 72.9277006,56.855871 72.9624817,56.5362159 C72.8739904,55.8177545 72.8739904,55.0913405 72.9624817,54.3728791 C73.4147268,54.3728791 73.4763966,54.9416437 73.6716843,55.246339 C73.8258588,56.0537816 73.558623,57.0288066 73.902946,57.7600754 C74.138667,57.9824801 74.4638318,58.0870933 74.7868797,58.0444577 C75.5063606,57.9022665 75.5371955,57.2370151 75.9688841,56.7647374 C76.2001458,57.1709978 75.8917968,57.7143711 75.9020751,58.0952402 C76.1195168,58.0800087 76.3272649,58.0003717 76.4982164,57.8667188 C77.4386808,56.4143377 76.4982164,54.3931921 76.7294781,52.7884635 C76.7294781,52.4075943 77.0172705,52.6665854 77.0840795,52.8443243 C77.171445,54.0884968 77.0840795,55.4748605 77.5979944,56.6885635 C77.8398676,56.9640059 77.9842127,57.3098949 78.0091263,57.6737451 C78.0862136,57.871797 78.2763621,57.7600754 78.4202583,57.7956232 C78.7183289,57.7092928 78.9752864,57.3131889 79.2476613,57.3284237 C79.0163996,57.5366322 79.1911307,57.8362492 79.2476613,58.0800055 C79.4679526,58.0648063 79.6635614,57.9353012 79.7615762,57.7397624 C79.8252681,57.6087608 79.8291063,57.4570714 79.7721193,57.3230883 C79.7151323,57.1891051 79.6027821,57.0856699 79.4635056,57.0389631 C79.697227,56.811897 79.8978619,56.5538204 80.0596469,56.2721466 C79.9722814,54.8756264 79.545732,53.5095757 79.545732,52.0216469 C79.545732,50.909509 79.1037651,49.9598753 79.031817,48.8883634 C79.2850396,46.7423062 80.0513129,44.6865691 81.267347,42.890944 C81.267347,42.890944 81.2210946,42.8452397 81.2108163,42.8249267 C81.200538,42.8046136 81.2570687,42.5202313 81.4420781,42.5964052 C81.806511,42.0209532 82.2414941,41.4921954 82.7371437,41.022146 L82.680613,40.9662852 C83.4874595,40.4584597 83.919148,39.6205476 84.6283506,38.9908439 C85.3015792,38.8842006 85.5585367,38.1630883 86.1700954,37.878706 C86.372481,37.439565 86.6315955,37.0281873 86.9409678,36.6548465 C86.8330457,36.5228119 87.2082036,36.1724123 86.8176282,36.147021 C86.1649563,35.9642038 85.6561805,36.4110903 85.1679613,36.7919594 C84.0527659,37.3505675 84.3713932,38.8232615 83.1123016,39.2955392 C82.9118748,39.5596085 82.7577003,40.1029818 82.2951768,39.9963385 C81.3341559,40.6971377 81.0771985,41.7788061 80.6455099,42.7385963 C80.2035431,43.0889959 80.270352,44.0589427 79.5200362,43.8405777 C79.5699503,43.5735514 79.6711276,43.3184339 79.8181069,43.0889959 C79.684489,42.7944571 80.1727082,42.1850665 79.5868452,42.2713968 C79.0080128,42.9105468 78.4756398,43.5893402 77.9937089,44.3026989 C77.8703693,44.0640209 77.7521689,43.8354995 77.6391076,43.6018997 C77.207419,42.8249267 78.0913527,42.1139709 78.4562323,41.5045803 C79.098626,40.6412769 79.9979771,40.1486861 80.7534321,39.4732782 C81.2313729,39.0162352 81.8275143,38.5033314 81.8120968,37.899019 C81.4677738,38.1478536 81.0052504,38.1072275 80.7534321,38.5439575 C80.5221703,38.4880967 80.4656397,38.9502179 80.2395171,38.7166181 C80.9338996,37.5162079 81.7445463,36.3852262 82.6600564,35.3395784 C82.8399267,34.9485527 83.4103722,34.5981531 83.1739714,34.1715797 C82.1461415,34.5422923 81.6322266,35.6595085 80.7534321,36.2688991 C80.4245265,35.9642038 80.0904818,36.3450729 79.7564371,36.3907772 C78.7851379,37.3759588 77.3461761,38.4220793 76.6266952,39.5900781 C76.3183462,39.5900781 76.0305538,40.3568946 75.8661011,39.9404777 C75.4344125,38.7166181 74.5402005,37.5384629 74.3963044,36.2130383 C74.6275661,36.1774905 74.7149316,36.5735944 74.9102193,36.4974206 C74.941365,36.5084885 74.9761658,36.501214 75.0001078,36.4786311 C75.0240497,36.4560483 75.0330212,36.4220351 75.0232806,36.3907772 C74.9564716,36.2181166 75.0900895,35.8829517 74.7920189,35.8829517 C74.6018703,34.476275 73.6511277,33.3438241 73.075543,32.0945733 C73.0292906,31.9980864 72.9008119,31.373461 73.1988826,31.6883129 C73.4969532,32.0031647 73.4301443,31.4902609 73.4301443,31.3379132 C72.9162294,30.180071 72.5667672,28.9358985 71.8472863,27.8440736 C71.0198833,24.9494681 69.2777117,22.3595579 68.0648724,19.7188652 C67.9775069,18.6067273 67.3659481,17.6875631 67.0370426,16.671912 C66.7852242,16.2808864 66.5231276,15.6867305 66.0862999,15.5699306 C65.777951,15.7984521 66.1633872,16.0371301 66.2096395,16.2707299 C66.5179885,16.6973033 65.9321255,16.7785554 65.7985076,16.392608 C65.7214203,15.2652353 64.7038688,14.5339666 64.4931637,13.4776895 C64.3389892,12.5585253 63.7325696,11.837413 63.1415674,11.0959878 C62.8434967,11.0198139 62.4683388,10.6389448 62.2011031,11.0299704 C62.1702682,10.8116055 62.0006762,10.8877793 61.9030324,11.0299704 C61.7886055,11.0027539 61.6848918,10.9426766 61.6049617,10.8573098 C61.3839783,10.0955715 60.1659999,9.63345024 60.3664268,8.77014684 C60.7004715,8.81585114 61.0190987,9.05452914 61.3942566,8.8767902 C61.4250915,8.68889476 61.1167426,8.63811221 61.2195255,8.41974723 C60.1454433,7.32792235 59.1638658,6.15992364 57.9818615,5.15442909 C57.765857,5.22218124 57.5439037,5.26978632 57.3189112,5.29662024 C57.3189112,5.80444577 57.8328262,5.99741947 57.9047742,6.39860163 C57.3050059,6.01173254 56.7331817,5.5841282 56.1934375,5.11888131 C55.9159235,4.76848169 55.21186,5.03255097 55.1964426,4.41808208 C54.9394851,4.10323025 55.4379826,4.22003013 55.6075745,4.18956059 C55.5733459,3.879859 55.3971686,3.60281289 55.1296336,3.43797881 C54.0041599,3.21961384 53.2949573,1.96528479 52.1900402,1.691059 C49.980206,0.203130211 46.8299075,0.284382295 44.4196465,0 C42.9704064,0.208208466 41.3772701,0.751581779 39.7635772,0.873459906 C39.3318887,1.00549454 38.6997733,1.01565105 38.6997733,1.62504168 C37.2505332,1.86371968 36.3460429,3.14851826 35.1640386,3.89502179 C35.1437529,4.31536756 35.000983,4.72096747 34.7529066,5.0630205 C34.454836,5.15950735 34.1978785,4.84465552 33.9768951,5.11888131 C32.7846124,5.9821847 32.0548532,7.15018341 31.2120328,8.31818212 C30.5799174,9.63852849 29.5880616,10.8065272 29.4441654,12.3401603 C29.6108687,12.388224 29.7847901,12.4071287 29.9580803,12.3960211 C29.9580803,13.1831507 29.8604365,14.1429409 29.1306773,14.4273232 C28.9257245,14.8296139 28.7869412,15.2616014 28.7195453,15.7070435 C28.4839903,16.1550409 28.2879762,16.6222791 28.1336823,17.1035637 C27.9589512,16.8750422 28.1336823,16.5347991 27.8356117,16.2859646 C27.6638061,16.3557246 27.5195406,16.4786792 27.4244797,16.6363642 C26.7923643,17.8805368 26.7615295,19.3481526 26.3092843,20.6583424 C25.5664511,22.753562 25.0496691,24.9204571 24.7675395,27.1229614 C24.2793203,27.8999344 24.5568344,28.925742 24.6441999,29.7992019 C24.5105821,29.9870973 24.4900255,30.3324187 24.233068,30.378123 C24.233068,31.0789222 23.9761105,32.0945733 24.0018063,32.9985027 C24.335851,33.9379799 24.0686152,34.714953 24.233068,35.730604 C24.3666859,36.4821858 23.888745,37.4775239 24.6441999,38.0005842 C24.9988012,38.1630883 24.6750348,37.7365149 24.9422706,37.7060453 C24.7778178,36.7462551 25.2506196,35.6188824 24.9988012,34.6235444 C25.4613247,33.6739107 25.1118625,32.3637208 25.2968719,31.1957221 C25.8364826,29.8195149 25.574386,27.752665 26.057466,26.300284 C26.2578928,25.5893283 26.057466,24.5635207 26.884869,24.2689819 C27.2163053,23.298959 27.4891604,22.310345 27.7019938,21.3083591 C27.8150551,20.4145862 27.6351848,19.1653354 28.5293968,18.6219621 C29.2385994,19.7036304 28.4831445,20.6989685 28.2981351,21.7654021 C28.5191185,22.7353488 27.9229772,23.4564611 27.8253334,24.4416426 C27.1829397,25.1170505 27.6814372,26.2545797 26.9413997,26.8893616 C26.401789,28.0167343 27.9126989,28.5601076 27.5940716,29.7382628 C27.1521048,30.8199312 26.8077818,32.3027817 27.296001,33.4098414 C27.0750176,34.7657355 27.296001,36.3044469 26.6536073,37.4724456 C26.5456852,38.5642705 25.8364826,39.6154693 26.3555367,40.7276072 C26.4120673,42.2764751 26.6638856,43.4343173 26.6536073,44.8663853 C27.1418265,46.014071 26.5765201,47.3141043 26.6536073,48.5379638 C26.6536073,49.0711806 27.1675222,48.6039811 27.3628099,48.7106245 C27.3552448,49.0425593 27.3932786,49.3739742 27.4758712,49.695806 C26.8540341,50.5387964 27.6197674,51.5290562 27.5992108,52.4939247 C27.5529584,53.6517669 28.5807883,54.5912441 28.5396751,55.7490863 C28.6835713,55.9674513 28.8171892,56.1655032 29.0124768,55.9877643 C29.156373,54.9721132 28.7452411,54.2205315 28.7709368,53.1896457 C28.878859,53.1439414 28.8171892,52.9814372 28.9456679,53.016985 C29.4595828,53.8599753 29.156373,55.0482871 29.6548705,55.8658862 C29.7873129,56.6122606 30.0685628,57.325179 30.4822736,57.9632056 C30.6056131,57.9632056 30.6570046,58.1358663 30.7803442,58.1358663 C31.0013276,57.9632056 30.8471532,57.6280408 30.8934055,57.3842845 C30.5593608,56.180738 30.117394,54.9060959 30.1328114,53.7127059 C30.497691,54.4541312 30.5850565,55.2971216 30.9602144,56.0385469 C31.0938323,56.221364 30.8831272,56.7037983 31.3148157,56.617468 C31.736226,55.6881472 31.04758,54.7842178 30.8934055,53.8853666 C30.7261313,53.419695 30.6871123,52.9184587 30.7803442,52.4329856 C31.6231647,53.2404282 31.2942591,54.6267919 31.9520703,55.5662691 C32.0959664,55.6881472 32.183332,55.6779907 32.3066716,55.5104083 C32.5957027,55.8975607 32.8163733,56.3302384 32.9593435,56.7901286 C32.9593435,57.7753102 33.8227206,58.4811876 33.6685461,59.4663692 C33.5077283,59.4345812 33.360645,59.3548212 33.2471359,59.2378477 C33.0569874,59.1413608 32.6612729,59.1515173 32.6612729,59.4663692 C32.9182303,61.6500189 34.3109398,63.3664692 34.7837415,65.4637886 C35.0355598,66.6521004 35.8989369,67.4646212 36.2535382,68.6072286 C36.2535382,68.7392633 36.5978612,68.8154371 36.4847999,68.9576283 C37.0398281,69.648271 36.1507552,70.3998527 36.7828706,71.1108085 C36.659531,71.6897296 37.0912196,72.1721638 37.1940025,72.7358502 C37.607466,73.5209124 37.9513604,74.3398774 38.2218324,75.1835692 C38.7974171,76.3515679 39.4243933,77.4890971 40.0462304,78.6266263 C40.1408561,78.7247123 40.1408561,78.8789398 40.0462304,78.9770259 C39.9383083,78.9770259 39.8149687,78.7586609 39.6916291,78.9110086 C39.3370278,78.2762267 38.9156176,77.5551144 38.5199031,76.8797065 C38.1344669,76.6156372 38.0882145,76.4226635 37.6359694,76.3718809 C37.8758428,76.7948816 38.0721155,77.2406195 38.2218324,77.7023838 C39.9126125,79.7997032 41.305322,82.0189008 43.1091634,84.0502029 C43.1091634,84.2127071 43.2633379,84.3041157 43.232503,84.4666198 C43.3838625,84.7044357 43.6589765,84.8364229 43.9417056,84.8068629 C44.5084052,85.3270971 44.9507941,85.9654706 45.2367712,86.6756609 C45.4410172,87.0257483 45.7241402,87.3246312 46.0641742,87.5491208 C46.9069947,88.5190675 47.1896479,89.8749617 48.2997042,90.7484216 C49.8966586,92.889073 51.6706119,94.8950949 53.6033063,96.7458411 L53.9579076,96.7458411 C55.2529732,98.2693176 57.3651636,99.3255947 58.310767,101.047123 C60.7004715,102.499504 62.5659827,104.672998 64.9659654,106.2371 C65.201291,106.390676 65.5066513,106.390676 65.7419769,106.2371 C63.9741096,104.378459 61.6614924,103.068269 59.9039033,101.158845 C59.4722148,100.808445 58.8092645,100.239681 58.7887079,99.7623247 C59.9154049,100.394894 60.9624896,101.15684 61.9081716,102.032305 C63.4499163,102.829591 64.1180058,104.327676 65.5055761,105.353484 C66.3483966,105.241762 66.5334059,106.160926 67.0987124,106.511326 C67.6742971,106.785552 68.1265422,107.679325 68.8665797,107.613307 C69.0515891,107.440647 68.7329618,107.262908 68.9231104,107.105482 C69.221181,107.105482 69.9509402,108.273481 70.6909777,108.044959 C70.9325177,108.552785 71.5183808,108.700054 71.9295127,109.030141 C72.7158025,109.162175 73.1988826,110.187983 74.0519814,109.969618 C74.1855992,109.324679 73.3325005,109.202801 72.936786,108.918419 C72.936786,108.918419 72.8905336,108.964123 72.869977,108.97428 C72.2587362,108.469743 71.5630812,108.074481 70.8143173,107.806281 C70.8151056,107.654747 70.9055622,107.51769 71.045579,107.455881 C71.5263326,107.545467 71.96259,107.792315 72.284114,108.156681 C73.3890311,108.53755 74.1855992,109.969618 75.5217781,109.502418 C75.1022665,109.23651 74.7143871,108.924773 74.3654695,108.573098 Z M75.7119266,52.3364988 C75.2494031,51.4528824 75.5217781,50.0969882 74.4733916,49.5942409 C74.6070095,48.5227291 74.6378444,47.4004346 75.1260636,46.4609574 C75.8352662,47.6848169 74.9513325,48.9086765 75.6399785,50.1223795 C75.93291,50.8181004 75.6142827,51.6356995 75.7119266,52.3364988 Z M74.1187903,37.7212801 C74.5607571,37.8431582 74.694375,38.3966881 74.8948018,38.772479 C75.1157853,39.4478869 76.0202755,40.6209639 75.0078631,40.9916765 C74.7303491,39.8947734 73.6151537,38.7166181 74.1239295,37.7212801 L74.1187903,37.7212801 Z M61.6409358,17.0629377 C62.4015299,17.108642 62.6379308,18.124293 63.0542018,18.6930576 C63.2443504,19.4547959 63.9175789,20.450134 64.7552603,20.5516991 C65.8293425,21.445472 65.9937953,22.7150358 66.7029979,23.7509999 C66.9640578,24.2973391 67.1822571,24.8626888 67.3556698,25.4420589 C66.9805119,26.041293 67.4122005,26.7522487 67.8181933,27.2448395 C69.1132589,28.4382295 69.359938,30.0835842 70.115393,31.4953392 C69.6271738,31.810191 70.0383058,32.3586426 69.9920534,32.7750595 C71.7599208,35.4411435 71.7599208,38.8181832 73.178326,41.6213802 C73.2941193,42.0997033 73.4523315,42.5670164 73.6511277,43.0179004 C73.7076584,43.190561 73.4763966,43.2261088 73.4763966,43.3683 C73.1217953,42.8604744 73.1320736,42.1901447 72.6489936,41.73818 C72.4742625,41.8346669 72.3406446,41.5198151 72.2378617,41.7940408 C72.0271565,43.0483699 73.4095877,44.1554295 72.4125927,45.2370979 C72.285446,45.4274731 72.2061586,45.6451061 72.181331,45.8718798 C71.9716244,45.308052 71.813393,44.7268135 71.7085293,44.1351165 C71.8376317,44.3887329 72.0721857,44.5741528 72.3509229,44.642942 C72.525654,44.3484032 72.1504961,43.4850998 71.939791,42.951883 C71.4258761,42.5608574 71.8061731,41.5959889 70.942796,41.5553628 C70.8091781,41.8295886 70.942796,42.2663186 70.8194564,42.4846836 C70.6087513,41.5452063 69.7916266,40.6920594 70.1102538,39.6967214 C70.3087553,39.6858162 70.4875083,39.5744594 70.5830556,39.4021826 C70.2952632,38.0361319 69.5552257,36.863055 68.9899193,35.6239607 C68.9899193,35.6239607 69.0361716,35.5782564 69.0464499,35.5579434 C68.6485686,35.0120204 68.3494943,34.4020591 68.1625163,33.7551627 C68.2087686,33.6586759 68.5171176,34.0598581 68.7483793,34.1614232 C68.8819972,34.1614232 69.082424,34.3239273 69.1697895,34.1055624 C68.635372,32.4242864 67.8803441,30.819443 66.9239813,29.3320024 C66.1633872,27.5495348 64.9762437,26.0463713 64.4469113,24.152182 C63.9843879,23.2025483 63.2443504,22.3595579 63.0439235,21.3032808 C63.2659063,21.3515708 63.4982174,21.3074956 63.6863172,21.1814027 C63.5886734,20.3638036 62.7458529,19.7087087 62.2730512,18.9622052 C62.0931809,18.3325015 61.4302307,17.8094412 61.6409358,17.0629377 Z M29.120399,51.9860992 C28.2096231,49.7263182 27.7691627,47.3083108 27.8253334,44.8765418 C28.2775785,45.8921928 28.364944,47.0855828 28.6424581,48.1977207 C28.5550926,49.2793891 28.9970594,50.3051967 29.1152598,51.3310042 L29.1152598,51.9759426 L29.120399,51.9860992 Z M29.05359,23.0705137 C29.0990724,21.9351833 29.3388659,20.8156705 29.7627926,19.7594912 C29.8057632,19.6743601 29.8985708,19.6254492 29.9940544,19.6376131 C29.4390262,20.6684989 29.9940544,22.1564277 29.05359,23.0705137 Z M30.2253161,50.8384135 C30.2715684,50.6657528 30.1276722,50.2036316 30.3486557,50.3305879 C30.842014,50.5438747 30.4565778,52.2958727 30.2355944,50.8181004 L30.2253161,50.8384135 Z" id="Shape"></path>
                    <path d="M77,112.297804 C77.0932808,112.522517 77.255441,112.684781 77.4459255,112.744014 C77.564839,112.866884 77.891851,112.828083 77.7878017,112.524142 C77.5549295,112.356005 77.381514,111.942129 77.054502,112.006797 C77.0396378,112.110266 77.0891851,112.246069 77,112.297804 Z" id="Shape"></path>
                    <path d="M75,111.235258 C75.4576478,111.541897 76.0794345,111.744701 76.7597045,111.809211 C77.3183408,111.692756 76.7597045,111.434894 76.522284,111.289326 C75.9915795,111.285167 75.3281988,110.677942 75,111.235258 Z" id="Shape"></path>
                    <path d="M75.7478887,130 C75.4476398,130.098216 75.2015312,130.273296 75.0518619,130.495149 C74.9205361,130.63901 75.0518619,130.92004 75.2970035,130.762797 L75.6734708,130.508531 C75.6165629,130.30445 75.9361224,130.173971 75.7478887,130 Z" id="Shape"></path>
                    <path d="M75.7637832,40 C75.8449828,39.6278911 75.8135949,39.2353639 75.6747196,38.8861985 C75.4287344,38.5859564 75.3905643,38.1355932 75.03431,38 C74.9070763,38.4261501 75.1700259,38.8232446 75.2336428,39.220339 C75.4329756,39.4624697 75.4117699,39.9128329 75.7637832,40 Z" id="Shape"></path>
                    <path d="M69.2804463,52.8072882 C69.6278635,52.6062908 69.4905125,52.293109 69.6440224,52.0547168 C69.2804463,51.8957887 69.3693205,52.1248321 69.086539,52.2136449 C69.2966052,52.4473627 68.6583271,52.8400087 69.2804463,52.8072882 Z" id="Shape"></path>
                    <path d="M64.807947,23.9268475 C64.7362284,23.3883257 64.5893957,22.8744677 64.3757093,22.4141822 C64.3253041,22.1924377 64.1872137,22.0310693 64.0212744,22 C63.9002478,22.600264 64.3195184,23.4586416 64.6739533,23.9868739 C64.7344666,24.0469003 64.7344666,23.8788264 64.807947,23.9268475 Z" id="Shape"></path>
                    <path d="M61.0699494,10.4349452 C61.1950823,10.6149562 61.4069038,10.749454 61.6593821,10.8092105 C61.8892608,10.5946926 61.8892608,10.1017578 61.3941374,10.0743726 C61.0699494,9.82334098 60.8931196,10.2751979 61.0699494,10.4349452 Z" id="Shape"></path>
                    <path d="M60,97 C60.0366287,97.3036443 60.2178277,97.5721809 60.4882656,97.7236087 C60.9379838,98.0391357 60.8566062,97.3870465 60.5910583,97.3029059 C60.4287336,97.1469302 60.2231041,97.0415491 60,97 Z" id="Shape"></path>
                    <path d="M46.3648889,89.008718 C46.2476561,88.9888399 46.1244857,89.0032537 46.0214843,89.0489042 C45.9020392,89.3411682 46.3101432,89.5749794 46.5191721,89.8014839 C46.6585247,89.8416702 46.7033166,89.7138047 46.8078311,89.6772718 C46.8129459,89.4154722 46.6485946,89.1674089 46.3648889,89.008718 Z" id="Shape"></path>
                    <path d="M31.1821085,62 C30.6597259,62.7892235 31.3771314,63.6354992 31.8786187,64.3438986 C32.0418707,64.63085 32.3577805,64.8651666 32.7631866,65 C32.8249655,64.920547 32.9049066,64.8483253 33,64.7860539 C32.9091074,64.1474082 32.6066237,63.5312362 32.1154321,62.9841521 C31.7950375,62.5752773 31.8855838,62.2472266 31.1821085,62 Z" id="Shape"></path>
                    <path d="M31.1867255,57 C31.1867255,57.1425025 30.7665931,57.5801887 31.1867255,57.8092105 C31.606858,57.7532274 31.606858,57.1068769 31.1867255,57 Z" id="Shape"></path>
                    <path d="M30.0150309,60.0680748 C29.9597626,60.3251365 30.0581484,60.5862361 30.2897329,60.7970882 C31.0976799,60.908025 30.6371501,60.226556 30.4836401,60.0152478 C30.3234932,59.9829605 30.1493951,60.0025868 30.0150309,60.0680748 Z" id="Shape"></path>
                    <path d="M29.0124457,60.3407407 C29.0124457,60.3407407 28.9636736,60.3851852 28.9419971,60.3950617 C28.7138996,60.1761196 28.4092279,60.0364276 28.0803574,60 C27.6630854,61.5061728 28.9907692,62.8049383 29.3159163,64.237037 C29.7602839,64.854321 30.0637545,65.7185185 30.8061736,66 C31.3047325,65.3185185 30.6923722,64.6419753 30.6219236,63.9604938 C29.581453,62.8691358 30.1287839,61.3432099 29.0124457,60.3407407 Z" id="Shape"></path>
                    <path d="M25.4198987,38 C25.7105407,37.1672152 26.0130456,36.1609335 25.6215687,35.287666 C25.2360232,35.4611629 25.5088708,34.9001898 25.1470512,35.0158543 C24.891998,35.6404429 25.0580791,36.5599762 25.0046959,37.3291455 C25.2656805,37.5142088 25.0640106,37.9884335 25.4198987,38 Z" id="Shape"></path>
                    <path d="M25.0969608,47.0039739 C24.9418573,47.268651 24.9738081,47.5581384 25.185835,47.8092105 C25.493041,47.7490659 25.6615073,47.5579859 25.5655701,47.3785026 C25.3959012,47.266144 25.5170933,46.9618394 25.0969608,47.0039739 Z" id="Shape"></path>
                    <path d="M24.7022372,44.0590533 C24.679623,43.5527073 24.6267844,43.0507616 24.544409,42.5597472 C24.4806061,41.9411523 24.544409,41.4011924 24.470532,40.8664748 C24.396655,40.3317572 24.470532,39.5244385 24.2388268,39.005448 C24.0809986,38.958267 24.1246532,39.2308681 24.0071216,39.3095031 C23.9768992,40.3579689 24.0507762,41.4064347 24.0809986,42.4915969 C24.3899389,43.9227528 24.2388268,45.6369944 24.6585826,47 L24.7727562,47 C24.8369617,46.0193345 24.8132267,45.0294808 24.7022372,44.0590533 Z" id="Shape"></path>
                    <path d="M103.594875,52.2331049 C102.035123,53.1851978 100.648111,54.8969394 99.4287608,56.4061081 L99.2153744,56.6643886 L99.1696488,56.6643886 C98.3161034,56.7707394 97.4828805,56.9581194 96.6801414,57.1303064 C95.148041,57.5427954 93.5606046,57.7136747 91.9754805,57.6367389 C91.673135,57.6619307 91.368741,57.6448848 91.0711288,57.5860956 C90.4157279,57.4949378 89.7349238,57.4037799 89.323393,57.9659199 C89.2627083,58.1645564 89.2318898,58.3710605 89.2319417,58.5787032 C89.2191883,58.9195449 89.3133092,59.2558768 89.5012149,59.5409248 C91.1930638,60.5082107 93.1592666,60.3360237 95.0289375,60.0068426 L95.3032914,59.9308777 C95.6806307,59.8024233 96.0737528,59.725755 96.4718357,59.7029831 L96.7360283,59.7029831 L96.5632869,59.9004918 C95.749838,60.9172138 95.086057,62.0444079 94.5920035,63.2480101 C93.8553126,64.8382079 93.1592666,66.3372479 91.599514,67.1779257 C90.4716148,67.7856447 89.5672631,67.9173171 88.8712171,67.5678787 C87.687431,66.9702885 87.4232383,65.0661025 87.2352551,63.6734134 C87.1974779,63.1782294 87.0967528,62.6898339 86.9354981,62.2199523 C86.6290888,62.0800562 86.2815176,62.0584027 85.9600177,62.1591804 C85.7654376,62.1973996 85.565245,62.1973996 85.3706649,62.1591804 C83.5416391,62.4377182 81.7126132,63.9367582 80.706649,65.2990615 C79.7006848,66.6613647 77.0231942,68.4541355 75.9359399,68.9656322 C75.143362,69.3403922 72.4099845,70.4849295 70.6673294,69.7759241 C70.4154217,69.6726114 70.2495422,69.429571 70.2456373,69.1580765 C70.2456373,69.1276906 70.2456373,69.0973046 70.2456373,69.0669187 C70.2456373,68.1198901 71.3278109,66.6411074 72.2321626,66.089096 L73.248288,65.4459269 C74.0073489,64.9148052 74.8154297,64.456949 75.661586,64.0785593 C76.0974542,64.0088792 76.4871833,63.768132 76.7437597,63.4100685 L76.9063397,63.2176242 C77.0663577,62.7260924 77.1569844,62.2147573 77.175613,61.6983269 C77.2335972,61.402952 77.1147367,61.1008301 76.8707753,60.9234853 C75.7631986,60.325895 73.5480451,61.5767831 72.4811133,62.1794377 L72.4150652,62.2199523 C71.1652308,62.9238934 70.1846698,63.4759047 68.6350784,64.5039625 C67.3344378,65.369962 64.0625138,64.3013896 62.3300199,63.7240566 L61.6644577,63.511355 L61.3138944,63.4607117 C60.4655607,63.2719927 59.5797401,63.3443969 58.7735807,63.668349 C58.3802246,63.8202446 58.0310085,64.0673924 57.7574553,64.3874831 L57.488182,64.6964069 C57.3010481,64.9425806 57.0681975,65.150614 56.8022973,65.3091901 L56.3348796,65.6434355 C56.0743528,65.9022909 55.7166974,66.040116 55.3492379,66.0232598 C54.8697095,65.9431159 54.4156144,65.7523489 54.0231942,65.4661842 C53.438922,65.1218101 52.8343274,64.7622431 52.3669097,64.9597517 C51.9952827,65.1647434 51.7359321,65.5255533 51.6607025,65.9422306 L51.5336868,66.3271193 C50.6191738,69.1479479 49.867241,71.320543 49.13055,71.5383089 L48.9781312,71.5129873 C48.6478904,71.3104143 48.0077314,69.80631 47.7537,68.4034922 C47.6273151,67.6776365 47.5391303,66.9456845 47.4895074,66.2106398 C47.3929755,64.995202 47.3523305,64.4887696 46.5445107,64.260875 C46.158383,64.1494598 45.6249172,64.4381263 45.0609675,64.7673074 C44.2328253,65.2129679 43.2929092,65.714336 42.5206539,65.1268744 C41.1588624,64.2455173 39.5717301,63.7726633 37.9480892,63.7645712 C36.6779324,64.073495 35.7380163,64.5951204 33.8835874,66.7069436 C32.9182682,67.8464166 32.0647228,68.7326733 30.6726309,68.8035738 C30.3861345,68.8391011 30.0988062,68.7442522 29.8902143,68.5452933 C29.5244091,68.1604047 29.5650541,67.4412706 29.6463442,66.6765576 C29.7223314,66.043755 29.5032881,65.4111276 29.0519108,64.9597517 C28.6659863,64.6613448 28.1520939,64.5846042 27.6953833,64.7571788 C26.1026968,65.3923451 24.8066027,66.5993557 24.0627347,68.1401474 C23.6228765,69.0867829 22.9772898,69.9240444 22.1727413,70.5912803 L22.0965319,70.7381457 C22.0467097,70.8035247 22.013581,70.8799976 22,70.960976 C22.0042301,70.9902528 22.0186104,71.0171293 22.040645,71.0369408 C24.3218467,71.133163 25.6885355,69.0669187 25.9374862,68.6516441 C26.3032914,68.0489895 26.8113541,67.3399841 27.1822399,67.3956917 C27.3338859,67.4307311 27.445048,67.5600041 27.4565938,67.7147441 L27.4565938,67.7552587 C27.3540359,68.3995802 27.5545142,69.0551135 28.0002209,69.5328365 C28.4292641,69.9503701 29.0116137,70.1737728 29.6107798,70.1506841 L29.880053,70.1506841 C31.912304,69.9835614 33.0097195,69.8873392 33.9445549,68.697223 L34.0918931,68.5047787 L34.1528606,68.7377376 C34.6470778,70.3144201 35.903181,71.5379499 37.4959134,71.9940981 C38.7953921,72.3902399 40.2060393,72.1558865 41.3063839,71.3610576 C42.2503954,70.7420392 42.8844112,69.7507682 43.0490391,68.6364511 L43.0490391,68.4895857 L43.1760548,68.4895857 C43.4993114,68.5422192 43.830908,68.4832593 44.1159708,68.322463 C44.3128887,68.1820891 44.5724035,68.1644517 44.7866137,68.2768841 C45.0254031,68.3933636 45.1676607,68.86941 45.4166114,69.7961814 C45.8129004,71.2293852 46.4327369,73.3969159 47.8603932,73.9337343 C49.8519991,74.6731256 52.7276342,69.0162755 53.3627126,67.3501128 C53.3922529,67.2421458 53.4686539,67.1529878 53.5710183,67.1070252 C53.7703442,67.078866 53.9725027,67.1338232 54.1298873,67.2589549 C54.5820542,67.5269193 55.0975625,67.6702392 55.6235918,67.6742295 L55.7099624,67.6742295 L55.7099624,67.8008376 C55.708718,68.7184728 56.0744028,69.5987677 56.7260879,70.2469062 C57.5797878,71.1990441 58.751724,71.8092314 60.0234151,71.9637122 C61.1716368,72.0143554 62.4976806,71.897876 63.5798542,70.6875025 C64.7992048,69.3505209 65.3936382,68.3579133 65.3428319,67.7451301 L65.3428319,67.618522 L65.4698476,67.618522 C66.1608129,67.588136 67.1108902,67.5425571 67.5833886,67.0766393 L67.9085487,66.7525225 L67.7866137,67.1931187 C67.3060482,68.6700801 67.6988149,70.2909167 68.8027391,71.3863792 C69.554672,72.0599343 71.1601502,72.3182149 72.2728076,72.1814781 C74.5286061,71.9029403 77.8614977,69.8974679 79.7413298,68.1300187 L79.8277005,68.0489895 L79.9140711,68.135083 C79.9648774,68.1857263 79.9597968,68.2110479 79.9140711,68.5199717 C79.8124586,69.2289771 79.5076209,71.3965079 80.3865695,72.0649987 C81.184228,72.5005305 82.4797879,71.7358176 83.338414,71.2243208 L83.5670422,71.0875841 C84.4947835,70.5704795 85.303139,69.864791 85.9396952,69.0162755 L86.0260658,68.9048603 L86.3766291,69.2644273 C86.8416762,69.8271791 87.4817353,70.2192494 88.1954937,70.3785787 C89.2116192,70.6216662 90.5275017,69.99369 92.3870113,68.352849 L92.4530594,68.2971414 L92.5292688,68.337656 C92.584179,68.3698155 92.614255,68.4317731 92.6054782,68.4946501 C92.5903488,68.6575453 92.5597275,68.8186394 92.5140269,68.9757609 C92.4730547,69.1271246 92.4424999,69.2811006 92.4225757,69.4366144 L92.4225757,69.5024506 C92.2601689,70.3122588 92.1616422,71.1335024 92.1278993,71.9586478 C92.1230168,72.081536 92.1367186,72.2044567 92.1685443,72.3232792 C92.7158992,73.0569685 93.600841,73.4617427 94.5157941,73.3969159 C97.0815109,72.9208695 99.3474707,71.695303 101.826817,70.2519706 L101.903026,70.211456 L101.969074,70.2671635 C105.479788,73.2601792 111.114204,69.0314684 111.769605,68.2971414 L112.064281,67.962896 L111.886459,68.7073517 C111.750528,69.247087 111.663805,69.7979622 111.627347,70.3532571 C111.620221,70.4757053 111.63927,70.5982658 111.683234,70.7128241 C111.924636,71.0589747 112.287014,71.3027947 112.699359,71.3965079 L113.060084,71.5332446 C115.503866,71.5332446 117.632649,70.1051052 119.446433,68.7478663 L119.5074,68.7022873 L119.537884,68.7022873 C119.566105,68.6711549 119.607966,68.6559813 119.649658,68.6617728 C119.708432,68.6777862 119.755775,68.7212016 119.776673,68.7782522 C119.861829,69.6269904 120.471231,70.331628 121.300861,70.5406371 C123.871659,70.960976 126.157941,69.9430468 128.08858,67.5020425 C128.693174,66.9956101 129.104705,67.1374112 129.272366,67.2589549 C129.511345,67.4144787 129.631899,67.6988753 129.577203,67.978089 L129.577203,67.947703 L129.577203,68.1097614 C129.531478,68.8744744 129.495913,69.5328365 130.136072,70.0139473 C131.589132,71.4724727 134.764524,70.0797835 135.292909,69.7607311 C135.963273,69.3630448 136.544356,68.8320943 137,68.2009192 C136.846431,68.2901113 136.66328,68.3138445 136.491937,68.2667555 L136.339518,68.2009192 L136.446212,68.0793755 C136.535225,67.9809561 136.599638,67.8629562 136.634195,67.7350014 C135.86702,68.3123344 133.931301,69.4670003 132.757676,69.2542987 C132.430674,69.2040198 132.146474,69.0032793 131.990501,68.712416 C131.66614,68.1571957 131.648893,67.4752588 131.944776,66.9044522 L132.153082,66.2258328 C132.24418,65.9278793 132.197637,65.604975 132.026066,65.3446404 C131.746631,64.9698804 131.121714,64.7673074 129.948089,64.6660209 C129.231721,64.605249 128.09366,65.1066171 127.108019,65.9118447 C126.753414,66.2332104 126.448641,66.6052742 126.203667,67.0158674 C125.607213,68.0459997 124.695652,68.8588028 123.602386,69.3353279 C123.277101,69.5195442 122.870926,69.4810814 122.58626,69.2391057 C122.144246,68.8542171 122.027391,68.0236679 122.291584,67.1171539 C122.434539,66.715861 122.651673,66.344826 122.931743,66.0232598 C123.110159,65.8068503 123.268318,65.5746098 123.404241,65.3294474 C123.555811,65.0130381 123.427506,64.6338461 123.114645,64.4735766 C122.576099,64.0633663 121.722554,63.9266296 121.590457,64.0532377 L121.082395,64.5292842 C119.334659,66.1397393 116.088138,69.1428836 114.345483,69.05679 L114.309918,69.05679 L114.279435,69.05679 C114.168941,68.9670207 114.110007,68.8286841 114.121935,68.6870944 C114.121935,68.6364511 114.121935,68.5858079 114.121935,68.540229 L114.121935,68.2819484 C114.660482,66.8082301 115.732494,65.526956 116.768942,64.2912609 L117.190634,63.7848285 C117.061493,63.6028962 116.883697,63.4607649 116.677491,63.3746182 L116.606362,63.339168 C116.339436,63.2155713 116.027037,63.2405599 115.7833,63.4050042 L115.600398,63.480969 C113.278551,66.2258328 107.694941,70.1861344 104.986967,69.851889 C104.417826,69.8133517 103.913351,69.4729573 103.666004,68.9605679 L103.625359,68.8744744 L103.696488,68.8137025 C105.540755,67.2944052 107.669538,65.2990615 107.84736,63.1872382 C107.739783,62.7209195 107.428518,62.3270478 106.998896,62.1136015 C105.835432,61.667941 104.641484,62.2857885 103.909874,63.0150512 C102.17738,64.7571788 101.298432,66.5600782 101.227303,68.5858079 L101.227303,68.6415155 L101.181577,68.6769657 C100.215451,69.3715495 99.1962053,69.9896007 98.1332008,70.5254441 L97.421913,70.9052684 L96.5734482,71.2091279 C96.0157009,71.4630529 95.4169557,71.6156889 94.8053899,71.6598527 L94.7545836,71.6598527 L94.7190192,71.6294668 C94.5564391,71.4133889 94.5564391,71.1162819 94.7190192,70.9002041 C94.7843249,70.7786157 94.8191852,70.6430967 94.8206318,70.5051868 L94.8206318,70.4646722 C95.7128437,65.7657269 98.1622214,61.5015419 101.776011,58.3558729 L101.801414,58.3558729 C103.707674,57.7995644 105.665,57.4348038 107.644135,57.2670432 L112.2167,56.8365756 C115.524134,56.4434555 118.854498,56.2742568 122.184891,56.3301432 L122.535454,56.3301432 C123.261984,56.3301432 125.243428,56.3909151 126.091893,56.3048216 C125.790372,56.2689984 125.512248,56.1249817 125.309476,55.8996756 C125.228186,55.7376173 124.389883,55.6110092 123.937707,55.5451729 C123.663147,55.5188522 123.392278,55.4628145 123.129887,55.3780502 C119.817602,55.1786025 116.497132,55.151556 113.182019,55.297021 L109.874531,55.3780502 C109.325823,55.3780502 107.400265,55.5856875 105.850674,55.7680032 L103.752375,56.0009621 L103.909874,55.7831962 L104.417937,55.0387405 L105.434062,53.5852794 C105.548491,53.3905151 105.698398,53.218761 105.876077,53.078847 C106.111605,52.9016475 106.288549,52.6582484 106.38414,52.3799703 C106.382338,52.3426268 106.368027,52.3069638 106.343495,52.2786838 C105.454385,51.8178303 104.412856,52.0204033 103.594875,52.2331049 Z M38.2935719,70.571023 C37.625232,70.2981381 37.053824,69.8326036 36.6525293,69.2340414 C36.3707279,68.8997689 36.2304319,68.4693345 36.261321,68.0337965 C36.3730948,67.4919139 37.5213165,67.1779257 38.0801856,67.2235047 C39.0342293,67.2717824 39.9210981,67.7276355 40.5138061,68.4743928 C40.6012521,68.9507217 40.440595,69.4387721 40.0870334,69.7708598 C39.6626507,70.3217529 38.9884597,70.6225471 38.2935719,70.571023 Z M58.6160813,69.8164387 C57.6914071,68.9605679 57.5999558,68.0084749 58.4179368,67.1374112 C59.0123702,66.4891776 60.5721228,66.4081485 61.6796996,66.7069436 C62.5129225,66.9297739 63.0362271,67.3399841 63.1480009,67.8616095 C63.2576544,68.3341353 63.1616835,68.830847 62.8838083,69.2289771 C62.4643329,69.9289591 61.7945051,70.4446457 61.0090568,70.6723095 C60.2469627,70.8090462 59.2664016,70.3228711 58.5957588,69.8164387 L58.6160813,69.8164387 Z M84.4205876,66.0485814 L84.7355865,65.7345933 L84.7355865,66.0485814 C84.708184,66.7391341 84.5147755,67.4130233 84.1716368,68.0135393 C83.8363154,68.7529306 82.6880937,70.1658771 81.7075326,70.211456 L81.6211619,70.211456 L81.5855975,70.211456 C81.4995224,70.1435065 81.4536635,70.0368458 81.4636625,69.9278538 C81.4604504,69.8857118 81.4604504,69.8433877 81.4636625,69.8012457 C81.6110007,68.884603 83.2977689,66.479049 84.3494588,66.104289 L84.4205876,66.0485814 Z" id="Shape"></path>
                    <path d="M3.4415776,50.1256989 C1.44413592,50.516365 0.330562183,51.0652755 0.105849995,51.7575951 C-0.328593571,53.1175085 0.685108081,55.1450159 1.14451967,55.9510737 C2.71750499,58.3544117 6.04324538,61.0198421 8.97449105,63.3687835 C10.098052,64.2737441 11.1616897,65.1292533 12.0205896,65.8809145 L12.205353,66.073775 L11.9606664,66.1133361 C9.32903695,66.5633439 5.9383797,66.2715806 3.63632816,65.8512437 C1.97845157,65.4902485 1.42915511,65.5842062 1.34925744,65.648493 C1.38421267,65.7078347 1.58895044,65.9452014 2.80239626,66.3803737 L2.74746661,66.6078501 C2.61675776,66.5887431 2.48503686,66.5771849 2.35297188,66.5732341 L2.35297188,66.5979598 L2.52275443,66.7265335 C5.29919836,67.7897385 8.60995794,67.3891822 11.511242,67.0380773 L12.6198221,66.9045585 L12.6547773,66.9045585 C12.7570695,66.9655094 12.8320672,67.0627675 12.8645087,67.1765412 L12.8894767,67.240828 C14.5024109,70.6183586 17.8830809,74.3667746 19.5259767,73.9711634 C19.8430304,73.6561693 20.000654,73.2169286 19.9554267,72.7744395 C19.9554267,72.6755367 19.9554267,72.5815791 19.9554267,72.4925666 C19.4560663,70.0743932 17.6583687,68.1655692 15.8606712,66.4149897 L15.8057416,66.3605931 L15.8357032,66.286416 C15.8676323,66.2015539 15.9548845,66.1501221 16.0454346,66.1627875 L16.0454346,66.1331167 L16.115345,66.1331167 C21.2648664,65.2732995 26.1886424,63.4019284 30.5967972,60.629176 C31.2160041,60.2137843 31.9550576,59.4324521 32,58.6016687 C31.9300895,57.2565906 30.8314966,56.1290987 29.8377694,55.6345847 C20.8193202,51.2383554 6.6574587,49.492721 3.4415776,50.1256989 Z M3.58139852,53.0927828 C3.57753656,52.8573686 3.64163733,52.6257573 3.76616187,52.4251889 C4.02331502,52.0738002 4.4229392,51.851532 4.85976119,51.8169367 C9.3889602,51.0949463 21.0789876,52.8801418 27.3309801,56.7324058 C28.1349504,57.4741768 28.4395602,58.2555089 28.2547969,59.0764021 C27.256076,61.7912839 20.5996016,64.4715497 14.8269952,65.6237673 L14.7920399,65.6237673 L14.7620783,65.6237673 C13.3339075,65.153979 12.5149564,63.705053 11.7958774,62.4242618 L11.2316001,61.4698498 C10.1330072,59.2643174 10.0131607,57.9686907 9.83339097,56.0301959 C9.83777773,55.9610321 9.83777773,55.8916639 9.83339097,55.8225 C9.83339097,54.9620457 9.3939538,53.1076182 9.17922882,52.885087 C8.85963815,53.1719051 8.6798684,54.8631429 8.6798684,55.926348 L8.95951024,57.731324 C9.06665344,58.879004 9.31311811,60.0097079 9.69357005,61.0989643 L9.49881949,61.2225928 L8.82468292,60.5401635 C6.92211972,58.6214492 4.33043915,55.9906348 3.64132177,53.5823517 C3.59751391,53.4212104 3.57733297,53.254668 3.58139852,53.0878377 L3.58139852,53.0927828 Z" id="Shape"></path>
                </g>
            </g>
        </g>
    </g>
</svg>