<svg viewBox="0 0 211 40" xmlns="http://www.w3.org/2000/svg" xmlns:xlink="http://www.w3.org/1999/xlink"><defs><path id="a" d="M0 0h228v115H0z"/></defs><g transform="translate(-12 -39)" fill="none" fill-rule="evenodd"><mask id="b" fill="#fff"><use xlink:href="#a"/></mask><g mask="url(#b)" fill="#FFF" fill-rule="nonzero"><path d="M192.825 39c-3.427 1.684-6.79.784-10.45.983v1.977l2.85.15c1.193.055 1.425 1.948 1.425 5.15v6.609l-1.1-.426c-1.518-.597-2.97-.926-4.325-.926-.73-.023-1.44.134-2.15.275a15.755 15.755 0 0 0-4.55 1.727c-.698.402-1.352.858-1.925 1.352-1.685 1.36-2.93 2.944-3.5 4.606-.734 1.604-1.1 3.525-1.1 5.832 0 7.403 3.66 12.21 9.5 12.64.25.02.492.049.75.05h.1c.231 0 .445-.01.65-.024.248-.02.502-.058.75-.1.102-.02.206-.024.3-.05a8.569 8.569 0 0 0 1.9-.651c1.885-.893 3.479-2.414 4.7-4.38l-.275 4.03.275.425c3.252-.109 4.279-.175 4.875-.175.434 0 1.407.07 2.925.125.38 0 1.412-.004 2.55.05v-2.003l-1.8-.125c-1.68-.108-1.95-.523-1.95-3.454V39.325l-.425-.325zm-12.25 16.996c2.331 0 4.286 1.096 6.075 3.43v9.962c0 2.442-2.544 4.455-5.525 4.455-3.849 0-6.3-3.725-6.3-9.587 0-5.481 1.901-8.26 5.75-8.26zM42.808 52c-3.209 1.736-6.395 1.02-9.808 1.251v1.99l2.421.18c1.232.11 1.384 1.736 1.384 5.001v12.122c0 2.988-.267 3.41-1.927 3.521L33 76.193v2.041l6.917-.178c.697 0 .847.012 8.08.178v-2.041l-2.076-.128c-2.304-.11-2.57-.423-2.57-3.521V61.57c0-1.716 2.185-3.548 4.275-3.548.268 0 .228-.05.468.004.477 1.534 1.84 2.676 3.114 2.676 1.711 0 3.113-1.929 3.113-4.313 0-2.293-1.296-4.146-2.916-4.287-.4-.05-.775-.096-1.16-.102-1.5-.025-2.51.666-4.546 2.934l-2.347 2.654v-5.257l-.544-.331zm23.989 0a9.75 9.75 0 0 0-2.15.23c-.214.048-.435.09-.642.154-3.61 1.008-6.487 3.124-7.856 5.793-1.145 1.898-1.68 4.305-1.68 7.374C54.469 74.35 58.766 79 66.747 79c3.054 0 5.015-.587 8.45-2.373 1.33-.692 1.803-1.08 1.803-1.08l-1.26-2.416c-2.518 1.438-4.132 1.94-6.275 1.94-2.786 0-5.405-1.552-6.744-3.93-.858-1.55-1.178-2.81-1.285-5.41h7.016c3.054 0 5.474-.324 8.474-1.098v-2.884c0-5.92-4.022-9.748-10.13-9.748zm-1.137 3.114c3.054 0 4.34 2.203 4.447 7.681l-4.496.154h-.222c-.322 0-1.766-.047-2.57-.103l-1.704-.05c.16-5.479 1.438-7.682 4.545-7.682zM117.102 52c-5.61 1.881-7.135.727-10.102.893v1.99l2.438.18c1.241.11 1.394 2.094 1.394 5.359v12.121c0 2.989-.268 3.412-1.941 3.522l-1.891.128v2.041l6.967-.178c1.079 0 3.676.068 7.29.178v-2.041l-1.89-.128c-1.673-.11-1.941-.533-1.941-3.522v-12.02c0-1.936 2.204-3.75 4.578-3.75 3.56 0 5.076 1.927 5.076 6.354v15.107c3.075-.11 3.989-.178 4.852-.178.755 0 .755.012 5.449.178v-2.041l-1.767-.128c-1.672-.11-1.94-.533-1.94-3.522v-10.31c0-4.26-.489-6.361-1.892-7.91-1.402-1.495-3.626-2.323-6.27-2.323-1.336 0-2.449.232-3.284.715-.05.028-.102.045-.15.076-1.87.938-3.447 2.18-4.652 3.573v-4.032l-.324-.332zm35.482 0c-8.579 0-13.312 4.88-13.312 13.679 0 8.521 4.419 13.321 12.242 13.321C160.146 79 165 73.98 165 65.015 165 56.605 160.569 52 152.584 52zm-.647 2.654c3.885 0 5.723 3.937 5.723 12.071 0 6.75-1.507 9.62-5.176 9.62-3.884 0-5.872-4.025-5.872-11.993 0-6.696 1.602-9.698 5.325-9.698zM28.447 39c-.737-.003-1.3.141-1.938.3-5.07 1.31-8.897 4.716-9.714 8.887-.255.957-.323 2.139-.323 3.904v2.328c-1.4.977-2.47 1.585-4.248 2.453v1.302l4.248-.275v14.768c0 2.985-.268 3.346-2.26 3.454L12 76.247v2.002c6.572-.163 6.579-.175 7.603-.175.754 0 .76.012 8.571.175v-2.002l-2.435-.126c-1.454-.054-2.372-.429-2.534-1.026-.108-.488-.15-1.125-.15-2.428V57.9h6.684l.572-3.154-.2-.426c-3.5.163-4.846.2-7.055.2v-5.857c0-2.062.145-3.024.522-3.73.392-.74 1.252-1.155 2.335-1.226.31.848.642 1.566.969 1.952a3.646 3.646 0 0 0 5.168.4 3.702 3.702 0 0 0 .795-4.655 4.19 4.19 0 0 0-2.137-2.078c-.723-.303-1.493-.302-2.26-.325zM93.74 52.517c-.795 0-1.497.081-2.161.225-.216.047-.438.087-.646.15-3.631.99-6.524 3.065-7.9 5.682-1.152 1.863-1.69 4.223-1.69 7.235 0 8.63 4.32 13.191 12.348 13.191 3.07 0 5.043-.576 8.497-2.328 1.336-.678 1.813-1.059 1.813-1.059l-1.267-2.37c-2.532 1.411-4.156 1.902-6.31 1.902-2.802 0-5.436-1.52-6.783-3.855-.862-1.52-1.184-2.755-1.292-5.306h7.056c3.07 0 5.505-.317 8.522-1.077V62.08c0-5.808-4.045-9.562-10.187-9.562zm-1.143 3.054c3.071 0 4.365 2.16 4.473 7.534l-4.522.15h-.224c-.323 0-1.776-.045-2.584-.1l-1.714-.05c.162-5.373 1.447-7.534 4.571-7.534zM212.585 52c-.808 0-1.52.083-2.195.23-.219.047-.444.088-.655.153-3.686 1.008-6.622 3.124-8.02 5.793C200.546 60.074 200 62.48 200 65.55 200 74.349 204.386 79 212.534 79c3.117 0 5.12-.587 8.625-2.373 1.357-.692 1.841-1.08 1.841-1.08l-1.286-2.417c-2.57 1.44-4.218 1.94-6.406 1.94-2.843 0-5.518-1.55-6.885-3.93-.875-1.55-1.202-2.81-1.311-5.41h7.162c3.117 0 5.588-.323 8.65-1.098V61.75c0-5.921-4.105-9.749-10.34-9.749zm-1.16 3.113c3.116 0 4.43 2.204 4.539 7.682l-4.59.153h-.227c-.328 0-1.803-.047-2.623-.102l-1.74-.051c.164-5.478 1.469-7.682 4.64-7.682z"/></g></g></svg>