<svg viewBox="0 0 137 138" xmlns="http://www.w3.org/2000/svg"><g fill="#FFF" fill-rule="nonzero"><path d="M112.484 59.002a.532.532 0 0 0-.437.176c-.438 1.133-.188 2.38-.403 3.62-1.446.57-.611 2.69-1.551 3.725.197 1.924-.94 3.346-.905 5.286.538-.088.669-.755.8-1.314.245-1.07.546-1.867.704-2.959.8-.517.092-1.769.603-2.436.048.29.092.559.148.833-.074 1.526-.874 2.772-.703 4.33.105 2.223-2.351 3.025-1.954 5.394-.205.517-.638.91-.751 1.48-.11.377.047.79.358.946.205.108.302-.155.437-.233.49-.62.205-1.702.996-2.069.077.564-.114 1.132-.498 1.48.075 1.437-1.31 2.311-1.005 3.739.555-.357.546-1.2.957-1.722.809-2.659 2.155-5.074 2.753-7.821a3.503 3.503 0 0 0-.253-1.065c.638-1.381.612-3.16.8-4.687.655-1.69 0-3.594.402-5.394.122-.683-.407-.787-.498-1.309zM113.154 52.107c.136 1.29.21 2.592.22 3.896a1.14 1.14 0 0 1-.066.267c-.02.206-.15.712.108.73a.694.694 0 0 0 .221-.257c.336-1.135.096-2.61-.041-3.905-.138-.644-.119-1.622-.55-1.838-.013.335-.145.882.108 1.107zM111.265 46.758c.452-1.385-.524-2.268-.877-3.365-.253-.213-.348-.7-.624-.7 0 .213.194.435.05.653-.452-.284-.154-.893-.452-1.253a.289.289 0 0 0-.362-.052c.077.473 0 1.182.362 1.626.086.662.633 1.13.728 1.791.515.917.176 2.278 1.08 2.978.118.567.109 1.271.624 1.564.229-.328.27-.76.109-1.13.018-.727.018-1.743-.638-2.112zM111.625 42.448c.301.538.036 1.57 1.17 1.552.036-.083.169 0 .205-.092 0-.77-.53-1.373-.766-2.059-.338.162-.428-.302-.688-.149-.283-.594-.778-1.127-1.103-1.7a.481.481 0 0 1-.417.105c-.144.385.35.704.417 1.101.506.376.361 1.08 1.182 1.242zM110.456 54.959c.427-.49.47-1.253.103-1.799-.183-.031-.376-.288-.559-.078.085.739-.052 1.279.211 1.913.083.013.168 0 .245-.036zM109.673 49.065c-.48-.584-.249-1.102-.542-1.764-1.041-.663-.534-1.979-1.055-2.87-.084-1.003-.391-.373-.315-1.437a6.01 6.01 0 0 0-.316-.994c-.045.467-.396-.238-.445.22.89 1.94 1.174 4.134 1.824 6.173-.316 1.096.574 2.006.409 3.103.058.303.316.662.658.43.183-.043-.382-.906-.23-1.018.537-.882.355-1.013.012-1.843zM105.167 38.99c-.534-.775-.322-.874-1.191-1.352-.139-.338-.396-.486-.494-.833-.257.027-.554-.36-.85-.514-.776.095-.776-.748-1.3-.933-.692-.162-1.606-.622-2.263-.153-.193.252.064.225.222.37.638-.136 1.147.328 1.754.405.47.816 1.67 1.212 2.21 2.014.202.311.592.784 1.022.667a3.915 3.915 0 0 0 1.137 1.397.467.467 0 0 0-.064.212c.34.45.405.257.647.73.044-.45-.4-.942-.351-1.388a1.242 1.242 0 0 1-.48-.622zM94.13 31.005a.411.411 0 0 0-.13 0h.13zM93.792 30.417a.277.277 0 0 1 .081 0 .127.127 0 0 0 .106-.093c.096-.229-.161-.159-.227-.322a5.245 5.245 0 0 0-1.613.21c-.837.08-1.657.28-2.429.593-1.053.112-1.854.793-2.776 1.176a9.68 9.68 0 0 0-1.734.751c-.66.402-.932 1.083-1.618 1.335.121.635-.685.593-1.007.967A2.89 2.89 0 0 0 82 36c.338-.322.771-.644 1.16-.966 1.788-.173 2.458-2.18 4.323-2.199.328-.243 1.194-.322.867-.966 1.552-.742 3.427-1.4 5.085-1.274a.815.815 0 0 0-.136.13.442.442 0 0 0 .292-.154c-.03-.116.086-.154.201-.154zM108.996 35.842c-.594-.8-1.508-1.433-2.214-2.104-.126.069-.155-.12-.28-.05-.668-.46-1.373-1.287-2.268-1.425-.227.336.18.496.102.79-.136.05-.189-.096-.334-.06-.125-.592-.913-.532-1.266-1.047 0-.298.062-.634-.28-.79l-.431-.143a1.572 1.572 0 0 0-1.025.216c0 .086.019.171.058.249.387.061.764.165 1.126.307.436.712 1.591.68 1.717 1.58.831.713 1.474 1.126 2.33 1.788.406.041.653.652.938.79.094.398.307.762.614 1.048.063 0 .179.041.217-.05.344-.566-.386-.662-.667-.947.073-.24-.135-.556-.053-.79.677.404.812 1.254 1.6 1.53.208-.23.073-.602.116-.892zM106.292 81.361c-.157-.164.045-.308.054-.472a.527.527 0 0 0-.118-.64c-.635 0-1.582-.605-1.97.353-.306 1.082-1.479 1.502-1.814 2.564.064.297.118.594.167.881a9.527 9.527 0 0 1-1.852 3.353c-.158.164-.296-.046-.458-.056.35-.785.37-1.487.901-2.184-.044-.287.212-.287.286-.513.296-2.117 2.311-3.342 2.597-5.47a.34.34 0 0 0-.34-.174 26.517 26.517 0 0 0-1.917 2.701c-.064.21-.414.76.108.708-.404 2.291-2.724 3.758-3.552 5.875-.084.23-.34.615 0 .825a.259.259 0 0 0 .222-.123c.221.231.413-.174.561-.123a.53.53 0 0 1-.054.298c-1.611 1.589-2.045 3.88-3.612 5.577-.492.718-.128 1.666-.847 2.24-.493 1.697-2.119 2.769-2.543 4.522-1.419 1.323-2.3 3-3.104 4.645-.581 1.215-1.759 2.184-1.917 3.588-.044.134-.182 0-.221.123a57.811 57.811 0 0 1-3.45 6.46c-.753 2.05-2.227 3.85-3.168 5.757a.805.805 0 0 1-.285.707c-1.08 1.236-1.577 2.712-3.04 3.46-.617.919-1.567 1.667-1.582 2.826.818-.252 1.05-1.513 1.803-1.943-.182.917-.941 1.707-1.242 2.645-.753 1.866-1.241 4.28-.625 6.285.295 1.148 1.833 2.205 1.97 1.887.469.287 1.292-1.907 1.804-2.292 1.06.718.192-.928.902-1.061.108.297.414-3.076.625-4.235.146-.62.334-1.227.562-1.82.173.22-.084.395 0 .652a.374.374 0 0 0 .232-.354c.424 0 .34-.708.492-1.056 1.124-1.38 1.76-2.989 2.651-4.465 1.326-1.057 1.567-2.79 2.375-4.168-.128-.795.33-1.477.848-2.051.453-1.59 1.508-2.922 2.089-4.465a5.99 5.99 0 0 0 .562-1.18c.492-1.358 1.503-2.588 1.759-3.993.347-.537.649-1.105.901-1.697 0-.297.434-.395.395-.707.394-.513.561-1.123 1.02-1.59.202-.594.754-1.025.729-1.707.443-.584.453-1.343.911-1.943.636-.938.986-1.994 1.631-2.932a8.921 8.921 0 0 1 1.242-2.589c0-.42.34-.682.453-1.025a.372.372 0 0 0 .173-.298 7.404 7.404 0 0 0 1.409-1.994c.094.144.044-.123.064-.18.314-.727.671-1.434 1.07-2.116.182-.749 1.354-1.149.783-1.995.064-.969 1.232-.994 1.478-1.886.054-.23.177-.759-.222-.759.053-.566.339-1.08.784-1.41.074 0 .192-.046.231.057.646.871-.36 1.763-.793 2.527-.138.123.094.2-.118.297.044.185-.094.472.118.585.818-.585 1.168-1.59 1.577-2.461.138.144-.055.461.167.513.464-.433.714-1.06.68-1.707a1.055 1.055 0 0 0-.394.471c-.118-.164.138-.307.054-.512.256-.241.138-.652.394-.882.39-.913-.345-.23-.596-.154z"/><path d="M108.695 76a19.612 19.612 0 0 0-1.626 2.532c-.191.235.044.6.34.42 0-.903 1.045-1.273 1.472-2.018a.533.533 0 0 0 .118-.36c-.378-.154-.039-.38-.304-.574zM106.871 87c-1.03.268-1.341 1.334-1.796 2.095.078.29-.413 1.12.413.853.874-.644 1.108-1.608 1.443-2.514.006-.134.186-.305-.06-.434zM104.479 90.04a1.307 1.307 0 0 0-.391.384c-.088.095-.176.385.087.385s.202-.228.465-.25c.088-.135.405-.714-.161-.52zM98.003 35.34c.11.29.357.475.628.47.412-.241 0-.587-.176-.81-.135.14-.492-.035-.452.34zM94.622 96.019c-.097.412-.375.563-.478.975 0 .322-.324.78 0 1.006.275-.32.48-.761.591-1.267-.035-.257.249-.845-.113-.714zM93 31.467c-.417-.782-1.138-.343-1.666-.356-.75.636-1.811.464-2.334 1.519.088.156.202.282.334.368 1.124.038 2.03-.603 3.05-.876.156-.356.626-.191.616-.655zM92.2 35.751c.237-.08.452-.309.608-.647-.273-.3-.529.121-.758.364-.132.267.026.34.15.283zM87.135 37.966c.276.152.567-.24.777-.467.45-.123.601-.97 1.11-.864.252-.63.978-.7.978-1.547-.388-.304-.803.303-1.246 0-.66.642-.834 1.658-1.553 2.212-.03.228-.392.567-.066.666zM86.622 37c-.268.143-.488.403-.622.735.259.265.473-.29.736 0 .045-.212.184-.696-.114-.735z"/><path d="M74.365 108.573a12.22 12.22 0 0 1-3.304-2.915c-1.855-1.965-3.967-2.95-5.591-5.124-.92-1.015-2.154-2.514-3.716-2.326.355.884 1.326 1.255 1.948 1.976 0 0-.047.046-.057.066-1.115-.549-1.978-1.691-3.13-2.163-.087 0-.174-.133-.23 0-1.075-.056-1.383-1.214-2.411-1.387-.165-.426-.74-.35-1.064-.645-.653-1.137-1.835-1.574-2.533-2.676-1.193-.874-1.45-2.285-2.544-3.2-.288-.076-.514.285-.71-.065-.107-1.422-1.269-2.25-1.999-3.428-1.372-.874-1.834-2.402-2.765-3.606-.334-.436-1.115-.807-1.063-1.462-.319-.798-1.229-1.376-1.47-2.21-1.49-2.63-3.942-4.839-5.273-7.55-.308-1.113-1.136-2.54-1.5-3.632-.92-1.802-.268-4.006-1.028-5.992-1.814-3.484-1.922-7.648-3.295-11.294-.046-.579-.077-1.407-.652-1.747.077-.94-.365-1.747-.288-2.62-.267-1.524-.555-3.255-.175-4.83-.113-1.68-.308-3.255-.067-4.946.334-.218.124-.655.175-.985.478-.874.067-1.915.355-2.864.19-1.473 0-3.047.827-4.357.2-.722-.308-1.488.108-2.154.308-2.03.298-4.062 1.028-5.997.267-.787.385-1.64.884-2.326.123-.909.653-1.65 1.028-2.448-.088-1.3 1.228-1.868 1.583-2.97a5.02 5.02 0 0 1 2.595-3.149 7.849 7.849 0 0 1 2.831-1.63 7.327 7.327 0 0 1 4.533.406c1.18.312 2.31.782 3.361 1.397 1.295.7 2.01 2.067 3.294 2.798.309-.787-.555-1.346-.94-1.925l.056-.056c.463.315.73.721 1.182 1.047 1.738 2.63 4.446 4.819 5.592 7.734.54 2.25 2.57 3.88 3.417 5.997 1.095 2.63 2.056 5.322 3.238 7.922a37.166 37.166 0 0 1 1.768 5.078c.586 1.499 1.49 2.865 1.768 4.48.853 1.366.74 2.98 1.238 4.423-.395 1.015-.632 2.097-.94 3.143.067.655-.375 1.158-.298 1.747.21.056.144-.107.298-.173a.228.228 0 0 1 .354.056c-.375 1.3-.817 2.819-.298 4.195.442.919 1.383 1.102 2.236 1.28.125-.297.207-.61.241-.93a8.848 8.848 0 0 1 0-2.163c.453 0 .514.569.71.873.154.808-.113 1.783.23 2.514.237.222.562.327.885.284.72-.142.75-.807 1.182-1.28.231.407-.077.95-.067 1.331.218-.015.425-.095.596-.228.94-1.453 0-3.474.231-5.079 0-.38.288-.121.355.056.087 1.244 0 2.63.514 3.845.242.275.386.62.411.985.077.198.267.086.411.122.298-.087.555-.483.828-.468-.232.209-.057.508 0 .752a.622.622 0 0 0 .514-.34.502.502 0 0 0-.298-.701c.233-.227.434-.485.596-.767-.088-1.396-.514-2.762-.514-4.25 0-1.112-.442-2.062-.514-3.134a13.52 13.52 0 0 1 2.235-5.997s-.046-.046-.056-.066c-.01-.02.046-.305.231-.229.365-.575.8-1.104 1.295-1.574l-.056-.056c.806-.508 1.238-1.345 1.947-1.975.674-.107.93-.828 1.542-1.112.202-.44.462-.85.771-1.224-.108-.132.267-.483-.123-.508-.653-.183-1.162.264-1.65.645-1.115.559-.797 2.031-2.056 2.504-.2.264-.354.807-.817.7-.96.701-1.218 1.783-1.65 2.743-.441.35-.375 1.32-1.125 1.102.05-.267.151-.523.298-.752-.134-.295.355-.904-.231-.818a18.225 18.225 0 0 0-1.593 2.032c-.124-.239-.242-.468-.355-.701-.432-.777.452-1.488.817-2.097.643-.864 1.542-1.356 2.297-2.032.478-.457 1.075-.97 1.06-1.574-.345.249-.808.208-1.06.645-.23-.056-.287.406-.513.173a21.372 21.372 0 0 1 2.42-3.377c.18-.391.75-.742.514-1.168-1.028.37-1.542 1.488-2.42 2.097-.33-.305-.664.076-.998.122-.97.985-2.41 2.031-3.13 3.2-.308 0-.595.766-.76.35-.432-1.224-1.326-2.403-1.47-3.728.232-.036.319.36.514.284a.088.088 0 0 0 .09-.018.086.086 0 0 0 .023-.088c-.067-.173.067-.508-.231-.508-.19-1.407-1.14-2.54-1.716-3.788-.047-.097-.175-.722.123-.407s.231-.198.231-.35c-.514-1.158-.863-2.402-1.583-3.494-.827-2.895-2.57-5.484-3.782-8.125-.087-1.112-.7-2.031-1.028-3.047-.252-.391-.514-.985-.95-1.102-.309.228.076.467.123.7.308.427-.278.509-.411.123-.078-1.128-1.095-1.859-1.306-2.915-.154-.92-.76-1.64-1.351-2.382-.299-.076-.674-.457-.94-.066-.032-.218-.201-.142-.299 0a.598.598 0 0 1-.298-.173c-.221-.761-1.439-1.224-1.239-2.087.334.046.653.285 1.028.107.031-.188-.277-.239-.174-.457-1.075-1.092-2.056-2.26-3.238-3.266a3.666 3.666 0 0 1-.663.143c0 .507.514.7.586 1.102-.6-.387-1.172-.815-1.712-1.28-.277-.35-.981-.086-.997-.7-.257-.316.242-.199.412-.23a1.014 1.014 0 0 0-.478-.751c-1.126-.218-1.835-1.473-2.94-1.747C49.98.203 46.83.284 44.42 0c-1.45.208-3.043.752-4.656.873-.432.132-1.064.143-1.064.752-1.45.239-2.354 1.524-3.536 2.27-.02.42-.163.826-.411 1.168-.298.097-.555-.218-.776.056-1.192.863-1.922 2.031-2.765 3.2-.632 1.32-1.624 2.488-1.768 4.021.167.048.34.067.514.056 0 .787-.098 1.747-.827 2.031a4.205 4.205 0 0 0-.411 1.28 8.723 8.723 0 0 0-.586 1.397c-.175-.229 0-.57-.298-.818a.855.855 0 0 0-.412.35c-.632 1.245-.662 2.712-1.115 4.022a31.213 31.213 0 0 0-1.541 6.465c-.489.777-.211 1.803-.124 2.676-.133.188-.154.533-.41.58 0 .7-.258 1.716-.232 2.62.334.939.067 1.716.231 2.732.134.751-.344 1.747.411 2.27.355.162.031-.264.298-.295-.164-.96.309-2.087.057-3.082.462-.95.113-2.26.298-3.428.54-1.376.277-3.443.76-4.896.2-.71 0-1.736.828-2.031.331-.97.604-1.959.817-2.96.113-.894-.067-2.144.827-2.687.71 1.082-.046 2.077-.23 3.143.22.97-.376 1.691-.474 2.677-.642.675-.144 1.813-.884 2.447-.54 1.128.972 1.671.653 2.85-.442 1.08-.786 2.564-.298 3.67-.221 1.357 0 2.895-.642 4.063-.108 1.092-.818 2.143-.298 3.256.056 1.548.308 2.706.298 4.138.488 1.148-.077 2.448 0 3.672 0 .533.514.066.709.173-.008.332.03.663.113.985-.622.843.144 1.833.123 2.798-.046 1.158.982 2.097.94 3.255.145.218.278.417.473.239.144-1.016-.267-1.767-.241-2.798.108-.046.046-.209.175-.173.514.843.21 2.031.709 2.849.132.746.414 1.46.827 2.097.124 0 .175.173.298.173.221-.173.067-.508.113-.752-.334-1.203-.776-2.478-.76-3.671.365.741.452 1.584.827 2.326.134.182-.077.665.355.578.421-.929-.267-1.833-.422-2.732a2.757 2.757 0 0 1-.113-1.452c.843.807.514 2.194 1.172 3.133.144.122.231.112.355-.056.289.388.51.82.652 1.28 0 .985.864 1.691.71 2.676a.804.804 0 0 1-.422-.228c-.19-.097-.586-.086-.586.228.257 2.184 1.65 3.9 2.123 5.998.252 1.188 1.115 2 1.47 3.143 0 .132.344.208.23.35.556.691-.333 1.443.299 2.154-.123.579.308 1.061.411 1.625a15.23 15.23 0 0 1 1.028 2.448c.575 1.168 1.202 2.305 1.824 3.443a.252.252 0 0 1 0 .35c-.108 0-.231-.218-.354-.066-.355-.635-.776-1.356-1.172-2.031-.386-.264-.432-.457-.884-.508.24.423.436.869.586 1.33 1.69 2.098 3.083 4.317 4.887 6.348 0 .163.154.254.124.417.15.237.426.37.709.34a5.148 5.148 0 0 1 1.295 1.869c.204.35.487.649.827.873.843.97 1.126 2.326 2.236 3.2a48.253 48.253 0 0 0 5.303 5.997h.355c1.295 1.523 3.407 2.58 4.353 4.301 2.39 1.453 4.255 3.626 6.655 5.19.235.154.54.154.776 0-1.768-1.859-4.08-3.169-5.838-5.078-.432-.35-1.095-.92-1.115-1.397a16.436 16.436 0 0 1 3.12 2.27c1.54.798 2.209 2.296 3.597 3.321.842-.111 1.027.808 1.593 1.158.575.275 1.028 1.168 1.768 1.102.185-.172-.134-.35.056-.508.298 0 1.028 1.168 1.768.94.242.508.827.655 1.239.985.786.132 1.269 1.158 2.122.94.134-.645-.72-.767-1.115-1.052 0 0-.046.046-.067.056a6.866 6.866 0 0 0-2.056-1.168c.001-.151.092-.288.232-.35.48.09.917.336 1.238.7 1.105.382 1.902 1.814 3.238 1.346a6.625 6.625 0 0 1-1.157-.929zm1.347-56.237c-.463-.883-.19-2.239-1.239-2.742.134-1.071.165-2.194.653-3.133.71 1.224-.175 2.448.514 3.661.293.696-.026 1.514.072 2.214zm-1.593-14.615c.442.122.575.676.776 1.051.22.676 1.125 1.849.113 2.22-.278-1.097-1.393-2.275-.884-3.27h-.005zM61.64 17.063c.76.046.997 1.061 1.413 1.63.19.762.864 1.757 1.701 1.859 1.074.893 1.239 2.163 1.948 3.199.261.546.48 1.112.653 1.691-.375.6.056 1.31.462 1.803 1.295 1.193 1.542 2.839 2.297 4.25-.488.315-.077.864-.123 1.28 1.768 2.666 1.768 6.043 3.186 8.846.116.479.274.946.473 1.397.057.173-.175.208-.175.35-.354-.508-.344-1.178-.827-1.63-.175.097-.308-.218-.411.056-.21 1.254 1.172 2.361.175 3.443-.128.19-.207.408-.232.635a9.976 9.976 0 0 1-.472-1.737c.129.254.363.44.642.508.175-.295-.2-1.158-.411-1.691-.514-.391-.134-1.356-.997-1.397-.134.275 0 .711-.124.93-.21-.94-1.027-1.793-.709-2.788a.576.576 0 0 0 .473-.295c-.288-1.366-1.028-2.539-1.593-3.778 0 0 .046-.046.056-.066a5.791 5.791 0 0 1-.883-1.803c.046-.096.354.305.585.406.134 0 .334.163.422-.055a20.067 20.067 0 0 0-2.246-4.774c-.76-1.782-1.948-3.286-2.477-5.18-.463-.95-1.203-1.792-1.403-2.849a.836.836 0 0 0 .642-.122c-.097-.817-.94-1.472-1.413-2.219-.18-.63-.843-1.153-.632-1.9zM29.12 51.986a17.909 17.909 0 0 1-1.296-7.11c.453 1.016.54 2.21.817 3.322-.087 1.081.355 2.107.473 3.133v.645l.005.01zm-.067-28.915a9.958 9.958 0 0 1 .709-3.312.227.227 0 0 1 .231-.121c-.555 1.03 0 2.518-.94 3.433zm1.171 27.767c.047-.172-.097-.634.124-.507.493.213.108 1.965-.113.487l-.01.02zM77 112.298c.093.225.255.387.446.446.119.123.446.084.342-.22-.233-.168-.406-.582-.733-.517-.015.103.034.24-.055.29zM75 111.235c.458.307 1.08.51 1.76.574.558-.116 0-.374-.238-.52-.53-.004-1.194-.611-1.522-.054zM75.748 130c-.3.098-.546.273-.696.495-.131.144 0 .425.245.268l.376-.254c-.056-.205.263-.335.075-.509z"/><path d="M75.764 40c.081-.372.05-.765-.09-1.114-.245-.3-.283-.75-.64-.886-.127.426.136.823.2 1.22.199.242.178.693.53.78zM69.28 52.807c.348-.2.21-.514.364-.752-.364-.16-.275.07-.557.159.21.233-.429.626.193.593zM64.808 23.927a5.25 5.25 0 0 0-.432-1.513c-.05-.222-.189-.383-.355-.414-.12.6.299 1.459.653 1.987.06.06.06-.108.134-.06zM61.07 10.435c.125.18.337.314.59.374.23-.214.23-.707-.266-.735-.324-.25-.5.201-.324.36zM60 97a.963.963 0 0 0 .488.724c.45.315.369-.337.103-.421A1.16 1.16 0 0 0 60 97zM46.365 89.009a.61.61 0 0 0-.344.04c-.119.292.29.526.498.752.14.04.184-.087.289-.124.005-.262-.16-.51-.443-.668zM31.182 62c-.522.79.195 1.635.697 2.344.163.287.479.521.884.656a.973.973 0 0 1 .237-.214c-.09-.639-.393-1.255-.885-1.802-.32-.409-.23-.737-.933-.984zM31.187 57c0 .143-.42.58 0 .81.42-.057.42-.703 0-.81zM30.015 60.068c-.055.257.043.518.275.73.808.11.347-.571.194-.783a.76.76 0 0 0-.469.053zM29.012 60.34s-.048.045-.07.055A1.48 1.48 0 0 0 28.08 60c-.417 1.506.91 2.805 1.236 4.237.444.617.748 1.482 1.49 1.763.499-.681-.114-1.358-.184-2.04-1.04-1.09-.493-2.617-1.61-3.62zM25.42 38c.29-.833.593-1.84.202-2.712-.386.173-.113-.388-.475-.272-.255.624-.089 1.544-.142 2.313.26.185.059.66.415.671zM25.097 47.004c-.155.265-.123.554.089.805.307-.06.476-.251.38-.43-.17-.113-.049-.417-.469-.375zM24.702 44.06a12.423 12.423 0 0 0-.158-1.5c-.063-.619 0-1.159-.073-1.694-.074-.534 0-1.342-.232-1.86-.158-.048-.114.225-.232.304-.03 1.048.044 2.096.074 3.182.309 1.43.158 3.145.578 4.508h.114c.064-.98.04-1.97-.07-2.94z"/><path d="M103.595 52.233c-1.56.952-2.947 2.664-4.166 4.173l-.214.258h-.045c-.854.107-1.687.294-2.49.466-1.532.413-3.12.584-4.705.507a3.267 3.267 0 0 1-.904-.05c-.655-.092-1.336-.183-1.748.379-.06.199-.091.405-.091.613-.013.34.081.677.27.962 1.691.967 3.657.795 5.527.466l.274-.076c.378-.129.77-.205 1.169-.228h.264l-.173.197a13.664 13.664 0 0 0-1.971 3.348c-.737 1.59-1.433 3.09-2.992 3.93-1.128.608-2.033.74-2.729.39-1.184-.598-1.448-2.502-1.636-3.895a5.848 5.848 0 0 0-.3-1.453 1.366 1.366 0 0 0-.975-.06 1.529 1.529 0 0 1-.59 0c-1.828.278-3.657 1.777-4.663 3.14-1.006 1.361-3.684 3.154-4.771 3.666-.793.374-3.526 1.519-5.269.81a.679.679 0 0 1-.421-.618v-.091c0-.947 1.082-2.426 1.986-2.978l1.016-.643a14.62 14.62 0 0 1 2.414-1.367c.435-.07.825-.31 1.082-.669l.162-.192c.16-.492.251-1.003.27-1.52a.774.774 0 0 0-.305-.775c-1.108-.597-3.323.654-4.39 1.256l-.066.041c-1.25.704-2.23 1.256-3.78 2.284-1.3.866-4.572-.203-6.305-.78l-.666-.213-.35-.05a4.306 4.306 0 0 0-2.54.207 2.54 2.54 0 0 0-1.017.72l-.269.308c-.187.247-.42.455-.686.613l-.467.334c-.26.26-.618.397-.986.38-.48-.08-.933-.27-1.326-.557-.584-.344-1.189-.704-1.656-.506a1.408 1.408 0 0 0-.706.982l-.127.385c-.915 2.82-1.667 4.994-2.403 5.211l-.153-.025c-.33-.203-.97-1.707-1.224-3.11a21.048 21.048 0 0 1-.264-2.192c-.097-1.216-.138-1.722-.945-1.95-.387-.112-.92.177-1.484.506-.828.446-1.768.947-2.54.36a8.494 8.494 0 0 0-4.573-1.362c-1.27.308-2.21.83-4.064 2.942-.966 1.14-1.82 2.026-3.211 2.097a.962.962 0 0 1-.783-.259c-.366-.385-.325-1.104-.244-1.868a2.077 2.077 0 0 0-.594-1.717 1.406 1.406 0 0 0-1.357-.203 6.85 6.85 0 0 0-3.632 3.383 7.037 7.037 0 0 1-1.89 2.451l-.076.147a.506.506 0 0 0-.097.223c.004.03.019.056.04.076 2.282.096 3.649-1.97 3.897-2.385.366-.603.874-1.312 1.245-1.256a.355.355 0 0 1 .275.319v.04c-.103.645.098 1.3.543 1.778.43.417 1.012.64 1.61.618h.27c2.032-.167 3.13-.264 4.065-1.454l.147-.192.06.233a4.92 4.92 0 0 0 3.344 3.256c1.3.396 2.71.162 3.81-.633a3.949 3.949 0 0 0 1.743-2.725v-.146h.127c.323.052.655-.007.94-.168a.642.642 0 0 1 .67-.045c.24.116.382.592.63 1.52.397 1.432 1.017 3.6 2.444 4.137 1.992.74 4.868-4.918 5.503-6.584a.375.375 0 0 1 .208-.243c.2-.028.402.027.559.152.452.268.968.411 1.494.415h.086v.127a3.443 3.443 0 0 0 1.016 2.446 5.284 5.284 0 0 0 3.297 1.717c1.149.05 2.475-.066 3.557-1.276 1.22-1.337 1.814-2.33 1.763-2.943v-.126h.127c.69-.03 1.64-.076 2.113-.542l.326-.324-.122.44a4.113 4.113 0 0 0 1.016 4.193c.752.674 2.357.932 3.47.795 2.256-.278 5.588-2.284 7.468-4.051l.087-.081.086.086c.05.05.046.076 0 .385-.102.709-.406 2.877.473 3.545.797.436 2.093-.33 2.951-.84l.229-.137a7.578 7.578 0 0 0 2.373-2.072l.086-.111.35.36a3.289 3.289 0 0 0 1.82 1.114c1.016.243 2.332-.385 4.191-2.026l.066-.056.076.04a.157.157 0 0 1 .076.158 2.575 2.575 0 0 1-.091.48 3.434 3.434 0 0 0-.091.462v.065c-.163.81-.261 1.632-.295 2.457-.005.123.009.245.04.364a2.691 2.691 0 0 0 2.348 1.074c2.566-.476 4.831-1.702 7.31-3.145l.077-.04.066.055c3.51 2.993 9.145-1.236 9.8-1.97l.295-.334-.178.744a9.21 9.21 0 0 0-.259 1.646.863.863 0 0 0 .056.36c.242.346.604.59 1.016.684l.361.136c2.444 0 4.573-1.428 6.386-2.785l.061-.046h.03a.127.127 0 0 1 .113-.04c.058.016.106.06.127.116a2.028 2.028 0 0 0 1.524 1.763c2.57.42 4.857-.598 6.788-3.039.604-.506 1.016-.365 1.183-.243.24.155.36.44.305.72v-.031.162c-.046.764-.081 1.423.56 1.904 1.452 1.458 4.628.066 5.156-.253A5.678 5.678 0 0 0 137 68.2a.662.662 0 0 1-.508.066l-.152-.066.106-.122a.84.84 0 0 0 .188-.344c-.767.577-2.703 1.732-3.876 1.52a1.052 1.052 0 0 1-.767-.543 1.874 1.874 0 0 1-.046-1.808l.208-.678c.091-.298.045-.621-.127-.881-.28-.375-.904-.578-2.078-.679-.716-.06-1.854.44-2.84 1.246a4.83 4.83 0 0 0-.904 1.104 5.583 5.583 0 0 1-2.602 2.32.891.891 0 0 1-1.016-.097c-.442-.385-.559-1.215-.294-2.122.143-.401.36-.772.64-1.094.178-.216.336-.448.472-.694a.647.647 0 0 0-.29-.855c-.538-.41-1.391-.547-1.524-.42l-.508.475c-1.747 1.61-4.994 4.614-6.737 4.528h-.065a.43.43 0 0 1-.158-.37v-.405c.538-1.474 1.61-2.755 2.647-3.99l.422-.507a1.193 1.193 0 0 0-.514-.41l-.07-.036a.84.84 0 0 0-.824.066l-.183.076c-2.321 2.745-7.905 6.705-10.613 6.37a1.585 1.585 0 0 1-1.321-.89l-.04-.087.07-.06c1.845-1.52 3.974-3.515 4.151-5.627a1.601 1.601 0 0 0-.848-1.073c-1.164-.446-2.358.172-3.09.901-1.732 1.742-2.61 3.545-2.682 5.57v.057l-.045.035a22.816 22.816 0 0 1-3.049 1.848l-.711.38-.849.304a5.165 5.165 0 0 1-1.768.45h-.05l-.036-.03a.606.606 0 0 1 0-.729.854.854 0 0 0 .102-.395v-.04a21.33 21.33 0 0 1 6.955-12.11h.025a29.858 29.858 0 0 1 5.843-1.088l4.573-.43a73.945 73.945 0 0 1 9.968-.507h.35c.727 0 2.708.06 3.557-.025a1.251 1.251 0 0 1-.783-.405c-.08-.162-.92-.289-1.371-.355a3.811 3.811 0 0 1-.808-.167 95.706 95.706 0 0 0-9.948-.081l-3.307.081c-.55 0-2.475.208-4.024.39l-2.099.233.158-.218.508-.744 1.016-1.454c.114-.194.264-.366.442-.506.236-.177.413-.42.508-.699a.167.167 0 0 0-.04-.101c-.89-.461-1.931-.259-2.75-.046zM38.294 70.571a3.625 3.625 0 0 1-1.641-1.337 1.678 1.678 0 0 1-.392-1.2c.112-.542 1.26-.856 1.82-.81.953.048 1.84.504 2.433 1.25.087.477-.073.965-.427 1.297a2.07 2.07 0 0 1-1.793.8zm20.322-.755c-.925-.855-1.016-1.808-.198-2.679.594-.648 2.154-.729 3.262-.43.833.223 1.356.633 1.468 1.155.11.472.014.969-.264 1.367-.42.7-1.09 1.216-1.875 1.443-.762.137-1.743-.35-2.413-.856h.02zm25.805-3.767l.315-.314v.314a4.304 4.304 0 0 1-.564 1.965c-.336.739-1.484 2.152-2.464 2.197h-.122a.324.324 0 0 1-.122-.283.833.833 0 0 1 0-.127c.147-.916 1.834-3.322 2.885-3.697l.072-.055z"/><path d="M3.442 50.126c-1.998.39-3.111.94-3.336 1.632-.435 1.36.58 3.387 1.039 4.193 1.573 2.403 4.898 5.069 7.83 7.418 1.123.905 2.187 1.76 3.046 2.512l.184.193-.244.04c-2.632.45-6.023.158-8.325-.263-1.658-.36-2.207-.267-2.287-.203.035.06.24.297 1.453.732l-.055.228c-.13-.02-.262-.03-.394-.035v.025l.17.129c2.776 1.063 6.087.662 8.988.311l1.109-.133h.035a.465.465 0 0 1 .21.272l.024.064c1.613 3.377 4.994 7.126 6.637 6.73.317-.315.475-.754.43-1.197v-.281c-.5-2.419-2.298-4.327-4.095-6.078l-.055-.054.03-.075a.195.195 0 0 1 .21-.123v-.03h.07a39.38 39.38 0 0 0 14.48-5.504c.62-.415 1.36-1.197 1.404-2.027-.07-1.345-1.169-2.473-2.162-2.967-9.019-4.397-23.18-6.142-26.396-5.51zm.14 2.967c-.004-.236.06-.467.184-.668a1.502 1.502 0 0 1 1.094-.608c4.529-.722 16.219 1.063 22.471 4.915.804.742 1.109 1.524.924 2.344-.999 2.715-7.655 5.396-13.428 6.548h-.065c-1.428-.47-2.247-1.919-2.966-3.2l-.564-.954c-1.099-2.206-1.219-3.501-1.399-5.44a1.64 1.64 0 0 0 0-.208c0-.86-.439-2.714-.654-2.937-.32.287-.5 1.978-.5 3.041l.28 1.805c.108 1.148.354 2.279.735 3.368l-.195.124-.674-.683c-1.903-1.919-4.495-4.55-5.184-6.958a1.725 1.725 0 0 1-.06-.494v.005z"/></g></svg>