<svg width="174" height="21" xmlns="http://www.w3.org/2000/svg"><g fill-rule="nonzero" fill="#000"><path d="M1.937 20.659H.034V4.729h1.903zM4.486 14.956c0-1.093.22-2.083.646-2.97.424-.871 1.036-1.554 1.8-2.032.765-.478 1.65-.717 2.635-.717 1.529 0 2.752.529 3.687 1.587.934 1.059 1.41 2.459 1.41 4.217v.137c0 1.093-.204 2.066-.628 2.937a4.936 4.936 0 0 1-1.785 2.031 5.007 5.007 0 0 1-2.667.734c-1.513 0-2.736-.529-3.688-1.587-.934-1.059-1.41-2.459-1.41-4.2v-.137zm1.92.222c0 1.246.289 2.237.867 3.005.577.751 1.342 1.127 2.31 1.127.97 0 1.734-.376 2.312-1.144.577-.768.85-1.827.85-3.21 0-1.23-.29-2.236-.867-2.988-.578-.768-1.36-1.144-2.311-1.144-.935 0-1.7.376-2.277 1.127-.595.734-.884 1.827-.884 3.227zM18.844 9.441l.068 1.418c.85-1.076 1.971-1.622 3.348-1.622 2.362 0 3.551 1.331 3.568 4.012v7.41h-1.903v-7.427c0-.803-.187-1.4-.56-1.793-.358-.393-.918-.58-1.683-.58-.612 0-1.155.17-1.631.495-.476.324-.833.768-1.088 1.314v7.99H17.06V9.442h1.784zM28.241 14.956c0-1.724.408-3.107 1.223-4.149.816-1.041 1.87-1.57 3.195-1.57 1.308 0 2.345.443 3.11 1.348V4.73h1.903v15.93h-1.75l-.085-1.196c-.765.94-1.836 1.417-3.195 1.417-1.291 0-2.345-.529-3.16-1.604-.816-1.076-1.224-2.459-1.224-4.166v-.154h-.017zm1.903.222c0 1.28.255 2.27.782 2.988.527.717 1.24 1.075 2.175 1.075 1.206 0 2.09-.546 2.65-1.639v-5.156c-.577-1.058-1.444-1.587-2.633-1.587-.935 0-1.665.358-2.192 1.092-.51.717-.782 1.793-.782 3.227zM40.119 14.956c0-1.093.22-2.083.645-2.97.425-.871 1.037-1.554 1.801-2.032.765-.478 1.649-.717 2.634-.717 1.53 0 2.753.529 3.688 1.587.934 1.059 1.41 2.459 1.41 4.217v.137c0 1.093-.204 2.066-.629 2.937a4.936 4.936 0 0 1-1.784 2.031 5.007 5.007 0 0 1-2.668.734c-1.512 0-2.736-.529-3.687-1.587-.935-1.059-1.41-2.459-1.41-4.2v-.137zm1.92.222c0 1.246.289 2.237.866 3.005.578.751 1.343 1.127 2.311 1.127.969 0 1.733-.376 2.311-1.144.578-.768.85-1.827.85-3.21 0-1.23-.29-2.236-.867-2.988-.578-.768-1.36-1.144-2.31-1.144-.935 0-1.7.376-2.278 1.127-.594.734-.883 1.827-.883 3.227zM54.494 9.441l.068 1.418c.85-1.076 1.971-1.622 3.347-1.622 2.362 0 3.552 1.331 3.569 4.012v7.41h-1.903v-7.427c0-.803-.187-1.4-.561-1.793-.357-.393-.918-.58-1.682-.58-.612 0-1.156.17-1.632.495-.475.324-.832.768-1.087 1.314v7.99H52.71V9.442h1.784zM67.935 6.641v2.783h1.835v2.425h-1.835v5.139c0 .427.068.717.22.888.154.17.46.256.901.256.34 0 .629-.017.867-.069v2.493a6.241 6.241 0 0 1-1.954.307c-1.19 0-2.09-.29-2.651-.853-.578-.564-.85-1.434-.85-2.578v-5.566h-1.427V9.44h1.427V6.66h3.467V6.64zM77.892 12.6l-1.138-.085c-1.088 0-1.801.341-2.107 1.041v7.103h-3.484V9.44h3.263l.119 1.435c.577-1.093 1.393-1.656 2.447-1.656.373 0 .696.034.968.119l-.068 3.261zM85.81 19.446c-.73.94-1.733 1.417-2.99 1.417-1.224 0-2.158-.358-2.787-1.075s-.951-1.742-.951-3.09V9.424h3.5v7.308c0 .956.459 1.434 1.393 1.434.799 0 1.36-.29 1.7-.854v-7.87h3.5v11.217h-3.263l-.101-1.213zM96.923 17.517c0-.29-.152-.53-.458-.717-.306-.188-.9-.359-1.768-.563-.866-.188-1.58-.444-2.14-.769-.561-.307-1.003-.7-1.292-1.144a2.817 2.817 0 0 1-.442-1.553c0-1.025.425-1.878 1.275-2.544.85-.666 1.954-1.007 3.33-1.007 1.478 0 2.65.341 3.551 1.007.901.666 1.343 1.553 1.343 2.646h-3.484c0-.905-.475-1.349-1.41-1.349-.357 0-.663.103-.917.308a.94.94 0 0 0-.374.768c0 .307.153.563.459.751.305.188.781.359 1.444.478.663.12 1.24.273 1.75.444 1.682.58 2.515 1.622 2.515 3.125 0 1.024-.459 1.86-1.36 2.492-.9.649-2.073.956-3.517.956-.951 0-1.818-.17-2.566-.512-.747-.341-1.342-.82-1.75-1.417-.425-.597-.629-1.212-.629-1.878h3.246c.017.512.187.905.51 1.144.323.239.747.358 1.274.358.476 0 .833-.102 1.07-.29.221-.17.34-.427.34-.734zM105.963 6.641v2.783h1.835v2.425h-1.835v5.139c0 .427.068.717.221.888.153.17.459.256.9.256.34 0 .63-.017.867-.069v2.493a6.241 6.241 0 0 1-1.954.307c-1.19 0-2.09-.29-2.65-.853-.578-.564-.85-1.434-.85-2.578v-5.566h-1.427V9.44h1.427V6.66h3.466V6.64zM111.435 9.441l.05 1.247c.816-.973 1.92-1.451 3.314-1.451 1.563 0 2.634.597 3.195 1.81.374-.547.85-.974 1.444-1.315.595-.325 1.291-.495 2.107-.495 2.447 0 3.704 1.297 3.738 3.91v7.512h-1.92v-7.41c0-.803-.187-1.4-.543-1.793-.357-.393-.986-.597-1.836-.597-.713 0-1.291.204-1.767.631-.476.427-.747.99-.815 1.725v7.444h-1.92v-7.342c0-1.639-.8-2.441-2.38-2.441-1.257 0-2.106.529-2.565 1.604v8.196h-1.903V9.459h1.8V9.44zM132.794 20.863c-1.512 0-2.753-.495-3.704-1.502-.952-1.007-1.428-2.339-1.428-4.012v-.359c0-1.11.204-2.1.629-2.988.425-.87 1.02-1.553 1.784-2.048a4.428 4.428 0 0 1 2.464-.734c1.444 0 2.583.478 3.382 1.434.798.956 1.206 2.339 1.206 4.131v.803h-7.562c.034 1.11.357 1.997.969 2.68s1.393 1.025 2.345 1.025c.68 0 1.24-.137 1.716-.41a4.157 4.157 0 0 0 1.224-1.093l1.172.905c-.918 1.451-2.328 2.168-4.197 2.168zm-.238-10.056c-.765 0-1.41.29-1.937.854-.527.563-.85 1.349-.969 2.373h5.59v-.154c-.05-.973-.322-1.724-.78-2.27-.477-.53-1.105-.803-1.904-.803zM138.894 14.956c0-1.724.408-3.107 1.224-4.149.815-1.041 1.869-1.57 3.194-1.57 1.309 0 2.345.443 3.11 1.348V4.73h1.903v15.93h-1.75l-.085-1.196c-.765.94-1.836 1.417-3.195 1.417-1.291 0-2.345-.529-3.16-1.604-.816-1.076-1.224-2.459-1.224-4.166v-.154h-.017zm1.92.222c0 1.28.255 2.27.782 2.988.527.717 1.24 1.075 2.175 1.075 1.206 0 2.09-.546 2.65-1.639v-5.156c-.577-1.058-1.444-1.587-2.633-1.587-.935 0-1.665.358-2.192 1.092-.527.717-.782 1.793-.782 3.227zM151.298 6.47c0-.307.102-.58.29-.785.186-.222.475-.324.849-.324s.646.102.85.324c.186.222.288.478.288.786 0 .307-.102.563-.288.785-.187.205-.476.307-.85.307s-.646-.102-.85-.307c-.204-.222-.289-.478-.289-.785zm2.056 14.189h-1.903V9.44h1.903V20.66zM163.312 20.659c-.102-.222-.204-.615-.272-1.179-.884.922-1.954 1.383-3.177 1.383-1.105 0-2.006-.307-2.702-.939-.714-.631-1.054-1.417-1.054-2.373 0-1.16.442-2.083 1.326-2.714.883-.65 2.124-.974 3.738-.974h1.852v-.887c0-.666-.204-1.213-.595-1.605-.39-.393-.985-.598-1.767-.598-.68 0-1.257.17-1.716.512-.459.342-.697.769-.697 1.264h-1.92c0-.564.204-1.093.595-1.622.39-.53.934-.94 1.614-1.247a5.381 5.381 0 0 1 2.243-.46c1.291 0 2.294.324 3.025.973.73.648 1.104 1.536 1.138 2.663v5.173c0 1.025.136 1.844.391 2.459v.17h-2.022zm-3.178-1.452c.595 0 1.173-.153 1.7-.46a2.864 2.864 0 0 0 1.172-1.213V15.23h-1.495c-2.345 0-3.518.683-3.518 2.066 0 .598.204 1.076.595 1.417.408.325.935.495 1.546.495z"/><g><path d="M169.497.563h-1.257v3.5h-.51v-3.5h-1.258V.137h3.008v.426zM170.738.137l1.274 3.192 1.274-3.192h.663v3.91h-.51v-1.52l.051-1.64-1.274 3.176h-.391L170.551.905l.05 1.639v1.52h-.51V.153h.647z"/></g></g></svg>