
<svg width="100%" height="100%" viewBox="0 0 96 20" version="1.1" xmlns="http://www.w3.org/2000/svg" xmlns:xlink="http://www.w3.org/1999/xlink">
    <defs>
        <rect id="path-1" x="0" y="0" width="104.3" height="52.5"></rect>
    </defs>
    <g id="Page-1" stroke="none" stroke-width="1" fill="none" fill-rule="evenodd">
        <g id="Homepage" transform="translate(-36.000000, -903.000000)">
            <g id="Cards" transform="translate(-30.000000, 801.000000)">
                <g id="Card" transform="translate(53.000000, 81.000000)">
                    <g id="Logos-/-Block" transform="translate(12.000000, 0.000000)">
                        <g id="Group" transform="translate(-4.900000, 3.850000)">
                            <mask id="mask-2" fill="white">
                                <use xlink:href="#path-1"></use>
                            </mask>
                            <g id="Rectangle-2"></g>
                            <g id="blockexplorer-white-01" mask="url(#mask-2)">
                                <g transform="translate(5.950000, 17.150000)">
                                    <path d="M6.79647201,3.96074159 C5.98414186,4.06277459 5.19367155,4.30193438 4.45679815,4.66861882 C4.45723751,4.28155562 4.40771963,3.89615019 4.30954595,3.52253189 C3.83053633,1.66576 2.31313964,0.288896211 0.464627376,0.0337084391 C0.312669425,0.0134916446 0.159714073,0.00223714978 0.00650941776,0 L0.00650941776,11.5788488 C-0.0298558449,12.4969168 0.0863461241,13.4146351 0.350097886,14.2923782 C0.547142753,14.9268829 1.05170387,15.4092107 1.68063794,15.5642883 C2.30957202,15.7193659 2.97145239,15.5246502 3.42603275,15.0508181 L4.7349412,13.7024805 C4.80196929,13.6364983 4.81556804,13.5314353 4.76766391,13.4496672 C4.12838543,12.1097747 4.39406898,10.4987274 5.42702034,9.45147318 C6.4599717,8.40421892 8.0279404,8.15622404 9.31830471,8.83601536 C10.608669,9.51580668 11.3313013,10.9705388 11.1116873,12.4462764 C10.8920733,13.9220141 9.77959135,15.08695 8.3508008,15.3373398 C7.67261972,15.4518419 6.97667461,15.3519447 6.35471541,15.0508181 C6.27375945,15.0102705 6.17710974,15.0235453 6.10929507,15.0845265 L4.80038662,16.4328641 C3.81870528,17.4441172 4.21137782,19.1969561 5.53664763,19.6014573 C6.5314713,19.9159324 7.57790566,20.019141 8.61258249,19.9048333 C11.4104599,19.6110007 13.837591,17.7870216 14.9634398,15.13219 C16.0892885,12.4773583 15.7391713,9.40359081 14.0473192,7.08933674 C12.3554671,4.77508268 9.58438355,3.5794157 6.79647201,3.96074159 Z" id="Shape" fill="#FFFFFF" fill-rule="nonzero"></path>
                                    <path d="M7.80758755,13.6694444 C8.83425696,13.6694444 9.66653696,12.8424149 9.66653696,11.8222222 C9.66653696,10.8020296 8.83425696,9.975 7.80758755,9.975 C6.78091814,9.975 5.94863813,10.8020296 5.94863813,11.8222222 C5.94959592,12.8420204 6.78131513,13.6684927 7.80758755,13.6694444 Z" id="Shape" fill="#FFFFFF" fill-rule="nonzero"></path>
                                    <g id="Group" stroke-width="1" fill="none" fill-rule="evenodd" transform="translate(18.589494, 6.280556)">
                                        <path d="M3.61413639,0.0163132925 C5.05979095,0.0163132925 6.30372627,0.701471579 6.30372627,2.20229449 C6.31105617,2.9266938 5.83551218,3.57278568 5.1270307,3.80099716 C5.97894717,4.03334699 6.56891196,4.78563066 6.57268525,5.64439922 C6.57268525,7.30835506 5.16065057,7.76512725 3.64775627,7.76512725 L0.134479494,7.76512725 L0.134479494,0.0163132925 L3.61413639,0.0163132925 Z M1.09264589,3.34422497 L3.63094633,3.34422497 C4.57230279,3.34422497 5.27832013,3.00164583 5.27832013,2.20229449 C5.27832013,1.33768999 4.57230279,0.880917797 3.56370658,0.880917797 L1.07583595,0.880917797 L1.09264589,3.34422497 Z M1.09264589,6.85158286 L3.59732646,6.85158286 C4.42101336,6.85158286 5.54727911,6.65582335 5.54727911,5.59545934 C5.54727911,4.61666179 4.50506304,4.22514277 3.64775627,4.22514277 L1.07583595,4.22514277 L1.07583595,6.85158286 L1.09264589,6.85158286 Z" id="Shape" fill="#FFFFFF" fill-rule="nonzero"></path>
                                        <polygon id="Shape" fill="#FFFFFF" fill-rule="nonzero" points="8.92607639 7.76512725 7.98471994 7.76512725 7.98471994 0.0163132925 8.92607639 0.0163132925"></polygon>
                                        <path d="M13.2462301,2.16966791 C14.9608437,2.16966791 16.1711591,3.34422497 16.1711591,5.04080739 C16.1711591,6.70476323 14.9272238,7.84669371 13.2462301,7.84669371 C11.5652365,7.84669371 10.3213011,6.67213665 10.3213011,5.04080739 C10.354921,3.34422497 11.5988563,2.16966791 13.2462301,2.16966791 Z M13.27985,3.00164583 C12.1199644,3.00164583 11.2626576,3.83362375 11.2626576,5.04080739 C11.2626576,6.18273787 12.0863445,7.01471579 13.2462301,7.01471579 C13.788549,7.02900823 14.312828,6.82508372 14.6948516,6.45125736 C15.0768753,6.07743101 15.2826501,5.56696688 15.2634225,5.04080739 C15.2634225,3.83362375 14.4061158,3.00164583 13.27985,3.00164583 Z" id="Shape" fill="#FFFFFF" fill-rule="nonzero"></path>
                                        <path d="M22.2395463,7.01471579 C21.6841401,7.55675818 20.9259181,7.856973 20.1383042,7.84669371 C18.5413602,7.84669371 17.1797553,6.83526957 17.1797553,5.00818081 C17.1797553,3.18109204 18.4741204,2.16966791 20.1383042,2.16966791 C20.906072,2.16018938 21.6431696,2.46168799 22.1723065,3.00164583 L21.5839587,3.60523765 C21.2007534,3.2583636 20.6959514,3.06590767 20.1719241,3.066899 C19.0456583,3.066899 18.1547316,3.81731045 18.1547316,5.04080739 C18.1547316,6.29693092 19.0792782,7.01471579 20.1719241,7.01471579 C20.723165,7.02040287 21.2545611,6.81529645 21.6511985,6.44375055 L22.2395463,7.01471579 Z" id="Shape" fill="#FFFFFF" fill-rule="nonzero"></path>
                                        <polygon id="Shape" fill="#FFFFFF" fill-rule="nonzero" points="24.3407884 4.61666179 26.6437497 2.31648754 27.8036353 2.31648754 27.8036353 2.38174071 25.1980951 4.89398776 28.1230241 7.69987408 28.1230241 7.76512725 26.9631385 7.76512725 24.3071685 5.18762703 24.3071685 7.76512725 23.382622 7.76512725 23.382622 0.0163132925 24.3071685 0.0163132925 24.3071685 4.6003485 24.3407884 4.6003485"></polygon>
                                        <polygon id="Shape" fill="#FFFFFF" fill-rule="nonzero" points="31.8212102 0.0163132925 37.4357291 0.0163132925 37.4357291 0.913544382 32.7961865 0.913544382 32.7961865 3.34422497 37.2340098 3.34422497 37.2340098 4.24145606 32.7961865 4.24145606 32.7961865 6.85158286 37.6206384 6.85158286 37.6206384 7.76512725 31.8212102 7.76512725"></polygon>
                                        <polygon id="Shape" fill="#FFFFFF" fill-rule="nonzero" points="40.3942779 4.95924093 38.4947551 2.31648754 38.4947551 2.28386095 39.5369711 2.28386095 40.9826257 4.35564911 42.4282803 2.28386095 43.4873063 2.28386095 43.4873063 2.31648754 41.5709735 4.95924093 43.6385957 7.74881395 43.6385957 7.78144054 42.5795697 7.78144054 40.9826257 5.57914605 39.3856817 7.78144054 38.3434656 7.78144054 38.3434656 7.74881395"></polygon>
                                        <path d="M44.6808118,2.31648754 L45.5717384,2.31648754 L45.6389782,3.37685155 C46.1008185,2.65697725 46.9169113,2.22386233 47.7906501,2.23492108 C49.4212139,2.26754766 50.5979095,3.37685155 50.5979095,5.04080739 C50.5979095,6.7700164 49.4212139,7.87932029 47.7234103,7.87932029 C46.9333433,7.87932029 46.0424167,7.53674115 45.5885484,6.75370311 L45.5885484,10.3100009 L44.6640018,10.3100009 L44.6640018,2.31648754 L44.6808118,2.31648754 Z M49.656553,5.07343398 C49.656553,3.83362375 48.8328661,3.11583887 47.6729805,3.11583887 C46.5130949,3.11583887 45.689408,3.94781679 45.689408,5.07343398 C45.689408,6.19905116 46.5130949,7.03102908 47.6729805,7.04734238 C48.7992463,7.01471579 49.656553,6.29693092 49.656553,5.07343398 Z" id="Shape" fill="#FFFFFF" fill-rule="nonzero"></path>
                                        <polygon id="Shape" fill="#FFFFFF" fill-rule="nonzero" points="52.9681106 7.76512725 52.0267541 7.76512725 52.0267541 0.0163132925 52.9681106 0.0163132925"></polygon>
                                        <path d="M57.2714544,2.16966791 C58.9860679,2.16966791 60.1963834,3.34422497 60.1963834,5.04080739 C60.1963834,6.70476323 58.952448,7.84669371 57.2714544,7.84669371 C55.5904607,7.84669371 54.3465254,6.67213665 54.3465254,5.04080739 C54.3465254,3.34422497 55.5904607,2.16966791 57.2714544,2.16966791 Z M57.3050742,3.00164583 C56.1451886,3.00164583 55.2878818,3.83362375 55.2878818,5.04080739 C55.2878818,6.18273787 56.1115687,7.01471579 57.2714544,7.01471579 C57.8137732,7.02900823 58.3380522,6.82508372 58.7200759,6.45125736 C59.1020995,6.07743101 59.3078743,5.56696688 59.2886468,5.04080739 C59.2886468,3.83362375 58.43134,3.00164583 57.3050742,3.00164583 Z" id="Shape" fill="#FFFFFF" fill-rule="nonzero"></path>
                                        <path d="M62.4489149,2.28386095 L62.5161546,3.11583887 C62.9027832,2.398054 63.6088005,2.20229449 64.264388,2.20229449 C64.731377,2.1894439 65.1886085,2.33350973 65.5587532,2.61012681 L65.1385048,3.37685155 C64.8540642,3.18063753 64.512462,3.0777552 64.1635284,3.08321229 C63.7181152,3.07478216 63.288848,3.24504782 62.9770313,3.55382762 C62.6652146,3.86260742 62.4984723,4.28254639 62.5161546,4.71454154 L62.5161546,7.74881395 L61.5747982,7.74881395 L61.5747982,2.28386095 L62.4489149,2.28386095 Z" id="Shape" fill="#FFFFFF" fill-rule="nonzero"></path>
                                        <path d="M71.2909416,6.88420945 C70.7362137,7.53674115 69.7612374,7.863007 68.8703107,7.863007 C67.1220773,7.863007 65.9117618,6.73738982 65.9117618,4.99186752 C65.9117618,3.32791168 67.1220773,2.15335461 68.8366908,2.15335461 C70.5513044,2.15335461 71.8792894,3.18109204 71.6439503,5.36707324 L66.8531183,5.36707324 C66.937168,6.37849738 67.7944748,6.9984025 68.8871206,6.9984025 C69.5427082,6.9984025 70.2991553,6.7700164 70.6857839,6.31324421 L71.2909416,6.88420945 Z M70.7530236,4.63297508 C70.6857839,3.57261107 69.9629566,3.00164583 68.8535008,3.00164583 C67.8785244,3.00164583 67.0212177,3.57261107 66.8363084,4.63297508 L70.7530236,4.63297508 Z" id="Shape" fill="#FFFFFF" fill-rule="nonzero"></path>
                                        <path d="M73.829242,2.28386095 L73.8964818,3.11583887 C74.2831103,2.398054 74.9891277,2.20229449 75.6447152,2.20229449 C76.1117041,2.1894439 76.5689356,2.33350973 76.9390803,2.61012681 L76.5188319,3.37685155 C76.2343914,3.18063753 75.8927891,3.0777552 75.5438556,3.08321229 C75.0984424,3.07478216 74.6691752,3.24504782 74.3573585,3.55382762 C74.0455417,3.86260742 73.8787995,4.28254639 73.8964818,4.71454154 L73.8964818,7.74881395 L72.9551253,7.74881395 L72.9551253,2.28386095 L73.829242,2.28386095 Z" id="Shape" fill="#FFFFFF" fill-rule="nonzero"></path>
                                    </g>
                                </g>
                            </g>
                        </g>
                    </g>
                </g>
            </g>
        </g>
    </g>
</svg>