<svg width="174px" height="21px" viewBox="0 0 174 21" version="1.1" xmlns="http://www.w3.org/2000/svg" xmlns:xlink="http://www.w3.org/1999/xlink">
    <g id="Page-1" stroke="none" stroke-width="1" fill="none" fill-rule="evenodd">
        <g id="Homepage" transform="translate(-138.000000, -53.000000)" fill="#FFFFFF">
            <g id="Logo" transform="translate(138.000000, 53.000000)">
                <g id="ltm">
                    <g id="Group" transform="translate(0.000000, 4.609756)" fill-rule="nonzero">
                        <polygon id="Shape" points="1.93710938 16.0487805 0.033984375 16.0487805 0.033984375 0.119512195 1.93710938 0.119512195"></polygon>
                        <path d="M4.4859375,10.3463415 C4.4859375,9.25365854 4.70683594,8.26341463 5.13164062,7.37560976 C5.55644531,6.50487805 6.16816406,5.82195122 6.9328125,5.34390244 C7.69746094,4.86585366 8.58105469,4.62682927 9.56660156,4.62682927 C11.0958984,4.62682927 12.3193359,5.15609756 13.2539062,6.21463415 C14.1884766,7.27317073 14.6642578,8.67317073 14.6642578,10.4317073 L14.6642578,10.5682927 C14.6642578,11.6609756 14.4603516,12.6341463 14.0355469,13.504878 C13.6107422,14.3756098 13.0160156,15.0414634 12.2513672,15.5365854 C11.4697266,16.0146341 10.5861328,16.2707317 9.58359375,16.2707317 C8.07128906,16.2707317 6.84785156,15.7414634 5.89628906,14.6829268 C4.96171875,13.6243902 4.4859375,12.2243902 4.4859375,10.4829268 L4.4859375,10.3463415 Z M6.40605469,10.5682927 C6.40605469,11.8146341 6.69492187,12.804878 7.27265625,13.5731707 C7.85039062,14.3243902 8.61503906,14.7 9.58359375,14.7 C10.5521484,14.7 11.3167969,14.3243902 11.8945313,13.5560976 C12.4722656,12.7878049 12.7441406,11.7292683 12.7441406,10.3463415 C12.7441406,9.11707317 12.4552734,8.1097561 11.8775391,7.35853659 C11.2998047,6.5902439 10.5181641,6.21463415 9.56660156,6.21463415 C8.63203125,6.21463415 7.86738281,6.5902439 7.28964844,7.34146341 C6.69492187,8.07560976 6.40605469,9.16829268 6.40605469,10.5682927 Z" id="Shape"></path>
                        <path d="M18.8443359,4.83170732 L18.9123047,6.24878049 C19.7619141,5.17317073 20.8833984,4.62682927 22.2597656,4.62682927 C24.6216797,4.62682927 25.8111328,5.95853659 25.828125,8.63902439 L25.828125,16.0487805 L23.925,16.0487805 L23.925,8.62195122 C23.925,7.8195122 23.7380859,7.22195122 23.3642578,6.82926829 C23.0074219,6.43658537 22.4466797,6.24878049 21.6820313,6.24878049 C21.0703125,6.24878049 20.5265625,6.4195122 20.0507812,6.74390244 C19.575,7.06829268 19.2181641,7.51219512 18.9632813,8.05853659 L18.9632813,16.0487805 L17.0601563,16.0487805 L17.0601563,4.83170732 L18.8443359,4.83170732 Z" id="Shape"></path>
                        <path d="M28.2410156,10.3463415 C28.2410156,8.62195122 28.6488281,7.23902439 29.4644531,6.19756098 C30.2800781,5.15609756 31.3335937,4.62682927 32.6589844,4.62682927 C33.9673828,4.62682927 35.0039062,5.07073171 35.7685547,5.97560976 L35.7685547,0.119512195 L37.6716797,0.119512195 L37.6716797,16.0487805 L35.9214844,16.0487805 L35.8365234,14.8536585 C35.071875,15.7926829 34.0013672,16.2707317 32.6419922,16.2707317 C31.3505859,16.2707317 30.2970703,15.7414634 29.4814453,14.6658537 C28.6658203,13.5902439 28.2580078,12.2073171 28.2580078,10.5 L28.2580078,10.3463415 L28.2410156,10.3463415 Z M30.1441406,10.5682927 C30.1441406,11.8487805 30.3990234,12.8390244 30.9257812,13.5560976 C31.4525391,14.2731707 32.1662109,14.6317073 33.1007813,14.6317073 C34.3072266,14.6317073 35.1908203,14.0853659 35.7515625,12.9926829 L35.7515625,7.83658537 C35.1738281,6.77804878 34.3072266,6.24878049 33.1177734,6.24878049 C32.1832031,6.24878049 31.4525391,6.60731707 30.9257813,7.34146341 C30.4160156,8.05853659 30.1441406,9.13414634 30.1441406,10.5682927 Z" id="Shape"></path>
                        <path d="M40.1185547,10.3463415 C40.1185547,9.25365854 40.3394531,8.26341463 40.7642578,7.37560976 C41.1890625,6.50487805 41.8007813,5.82195122 42.5654297,5.34390244 C43.3300781,4.86585366 44.2136719,4.62682927 45.1992188,4.62682927 C46.7285156,4.62682927 47.9519531,5.15609756 48.8865234,6.21463415 C49.8210938,7.27317073 50.296875,8.67317073 50.296875,10.4317073 L50.296875,10.5682927 C50.296875,11.6609756 50.0929687,12.6341463 49.6681641,13.504878 C49.2433594,14.3756098 48.6486328,15.0414634 47.8839844,15.5365854 C47.1023437,16.0146341 46.21875,16.2707317 45.2162109,16.2707317 C43.7039063,16.2707317 42.4804687,15.7414634 41.5289063,14.6829268 C40.5943359,13.6243902 40.1185547,12.2243902 40.1185547,10.4829268 L40.1185547,10.3463415 Z M42.0386719,10.5682927 C42.0386719,11.8146341 42.3275391,12.804878 42.9052734,13.5731707 C43.4830078,14.3243902 44.2476562,14.7 45.2162109,14.7 C46.1847656,14.7 46.9494141,14.3243902 47.5271484,13.5560976 C48.1048828,12.7878049 48.3767578,11.7292683 48.3767578,10.3463415 C48.3767578,9.11707317 48.0878906,8.1097561 47.5101563,7.35853659 C46.9324219,6.5902439 46.1507813,6.21463415 45.1992188,6.21463415 C44.2646484,6.21463415 43.5,6.5902439 42.9222656,7.34146341 C42.3275391,8.07560976 42.0386719,9.16829268 42.0386719,10.5682927 Z" id="Shape"></path>
                        <path d="M54.4939453,4.83170732 L54.5619141,6.24878049 C55.4115234,5.17317073 56.5330078,4.62682927 57.909375,4.62682927 C60.2712891,4.62682927 61.4607422,5.95853659 61.4777344,8.63902439 L61.4777344,16.0487805 L59.5746094,16.0487805 L59.5746094,8.62195122 C59.5746094,7.8195122 59.3876953,7.22195122 59.0138672,6.82926829 C58.6570312,6.43658537 58.0962891,6.24878049 57.3316406,6.24878049 C56.7199219,6.24878049 56.1761719,6.4195122 55.7003906,6.74390244 C55.2246094,7.06829268 54.8677734,7.51219512 54.6128906,8.05853659 L54.6128906,16.0487805 L52.7097656,16.0487805 L52.7097656,4.83170732 L54.4939453,4.83170732 Z" id="Shape"></path>
                        <path d="M67.9347656,2.03170732 L67.9347656,4.81463415 L69.7699219,4.81463415 L69.7699219,7.23902439 L67.9347656,7.23902439 L67.9347656,12.3780488 C67.9347656,12.804878 68.0027344,13.095122 68.1556641,13.2658537 C68.3085937,13.4365854 68.6144531,13.5219512 69.05625,13.5219512 C69.3960937,13.5219512 69.6849609,13.504878 69.9228516,13.4536585 L69.9228516,15.9463415 C69.2941406,16.1512195 68.6484375,16.2536585 67.96875,16.2536585 C66.7792969,16.2536585 65.8787109,15.9634146 65.3179687,15.4 C64.7402344,14.8365854 64.4683594,13.9658537 64.4683594,12.8219512 L64.4683594,7.25609756 L63.0410156,7.25609756 L63.0410156,4.83170732 L64.4683594,4.83170732 L64.4683594,2.04878049 L67.9347656,2.04878049 L67.9347656,2.03170732 Z" id="Shape"></path>
                        <path d="M77.8921875,7.9902439 L76.7537109,7.90487805 C75.6662109,7.90487805 74.9525391,8.24634146 74.6466797,8.94634146 L74.6466797,16.0487805 L71.1632812,16.0487805 L71.1632812,4.83170732 L74.4257813,4.83170732 L74.5447266,6.26585366 C75.1224609,5.17317073 75.9380859,4.6097561 76.9916016,4.6097561 C77.3654297,4.6097561 77.6882813,4.64390244 77.9601563,4.72926829 L77.8921875,7.9902439 Z" id="Shape"></path>
                        <path d="M85.8105469,14.8365854 C85.0798828,15.7756098 84.0773437,16.2536585 82.8199219,16.2536585 C81.5964844,16.2536585 80.6619141,15.895122 80.0332031,15.1780488 C79.4044922,14.4609756 79.0816406,13.4365854 79.0816406,12.0878049 L79.0816406,4.81463415 L82.5820312,4.81463415 L82.5820312,12.1219512 C82.5820312,13.0780488 83.0408203,13.5560976 83.9753906,13.5560976 C84.7740234,13.5560976 85.3347656,13.2658537 85.6746094,12.702439 L85.6746094,4.83170732 L89.175,4.83170732 L89.175,16.0487805 L85.9125,16.0487805 L85.8105469,14.8365854 Z" id="Shape"></path>
                        <path d="M96.9234375,12.9073171 C96.9234375,12.6170732 96.7705078,12.3780488 96.4646484,12.1902439 C96.1587891,12.002439 95.5640625,11.8317073 94.6974609,11.6268293 C93.8308594,11.4390244 93.1171875,11.1829268 92.5564453,10.8585366 C91.9957031,10.5512195 91.5539062,10.1585366 91.2650391,9.71463415 C90.9761719,9.27073171 90.8232422,8.74146341 90.8232422,8.16097561 C90.8232422,7.13658537 91.2480469,6.28292683 92.0976562,5.61707317 C92.9472656,4.95121951 94.0517578,4.6097561 95.428125,4.6097561 C96.9064453,4.6097561 98.0789062,4.95121951 98.9794922,5.61707317 C99.8800781,6.28292683 100.321875,7.17073171 100.321875,8.26341463 L96.8384766,8.26341463 C96.8384766,7.35853659 96.3626953,6.91463415 95.428125,6.91463415 C95.0712891,6.91463415 94.7654297,7.01707317 94.5105469,7.22195122 C94.2556641,7.42682927 94.1367187,7.68292683 94.1367187,7.9902439 C94.1367187,8.29756098 94.2896484,8.55365854 94.5955078,8.74146341 C94.9013672,8.92926829 95.3771484,9.1 96.0398437,9.2195122 C96.7025391,9.33902439 97.2802734,9.49268293 97.7900391,9.66341463 C99.4722656,10.2439024 100.304883,11.2853659 100.304883,12.7878049 C100.304883,13.8121951 99.8460937,14.6487805 98.9455078,15.2804878 C98.0449219,15.9292683 96.8724609,16.2365854 95.428125,16.2365854 C94.4765625,16.2365854 93.6099609,16.0658537 92.8623047,15.7243902 C92.1146484,15.3829268 91.5199219,14.904878 91.1121094,14.3073171 C90.6873047,13.7097561 90.4833984,13.095122 90.4833984,12.4292683 L93.7289062,12.4292683 C93.7458984,12.9414634 93.9158203,13.3341463 94.2386719,13.5731707 C94.5615234,13.8121951 94.9863281,13.9317073 95.5130859,13.9317073 C95.9888672,13.9317073 96.3457031,13.8292683 96.5835937,13.6414634 C96.8044922,13.4707317 96.9234375,13.2146341 96.9234375,12.9073171 Z" id="Shape"></path>
                        <path d="M105.963281,2.03170732 L105.963281,4.81463415 L107.798438,4.81463415 L107.798438,7.23902439 L105.963281,7.23902439 L105.963281,12.3780488 C105.963281,12.804878 106.03125,13.095122 106.18418,13.2658537 C106.337109,13.4365854 106.642969,13.5219512 107.084766,13.5219512 C107.424609,13.5219512 107.713477,13.504878 107.951367,13.4536585 L107.951367,15.9463415 C107.322656,16.1512195 106.676953,16.2536585 105.997266,16.2536585 C104.807812,16.2536585 103.907227,15.9634146 103.346484,15.4 C102.76875,14.8365854 102.496875,13.9658537 102.496875,12.8219512 L102.496875,7.25609756 L101.069531,7.25609756 L101.069531,4.83170732 L102.496875,4.83170732 L102.496875,2.04878049 L105.963281,2.04878049 L105.963281,2.03170732 Z" id="Shape"></path>
                        <path d="M111.434766,4.83170732 L111.485742,6.07804878 C112.301367,5.10487805 113.405859,4.62682927 114.799219,4.62682927 C116.3625,4.62682927 117.433008,5.22439024 117.99375,6.43658537 C118.367578,5.8902439 118.843359,5.46341463 119.438086,5.12195122 C120.032812,4.79756098 120.729492,4.62682927 121.545117,4.62682927 C123.991992,4.62682927 125.249414,5.92439024 125.283398,8.53658537 L125.283398,16.0487805 L123.363281,16.0487805 L123.363281,8.63902439 C123.363281,7.83658537 123.176367,7.23902439 122.819531,6.84634146 C122.462695,6.45365854 121.833984,6.24878049 120.984375,6.24878049 C120.270703,6.24878049 119.692969,6.45365854 119.217187,6.8804878 C118.741406,7.30731707 118.469531,7.87073171 118.401563,8.60487805 L118.401563,16.0487805 L116.481445,16.0487805 L116.481445,8.70731707 C116.481445,7.06829268 115.682813,6.26585366 114.102539,6.26585366 C112.845117,6.26585366 111.995508,6.79512195 111.536719,7.87073171 L111.536719,16.0658537 L109.633594,16.0658537 L109.633594,4.84878049 L111.434766,4.84878049 L111.434766,4.83170732 Z" id="Shape"></path>
                        <path d="M132.793945,16.2536585 C131.281641,16.2536585 130.041211,15.7585366 129.089648,14.7512195 C128.138086,13.7439024 127.662305,12.4121951 127.662305,10.7390244 L127.662305,10.3804878 C127.662305,9.27073171 127.866211,8.2804878 128.291016,7.39268293 C128.71582,6.52195122 129.310547,5.83902439 130.075195,5.34390244 C130.839844,4.84878049 131.655469,4.6097561 132.539063,4.6097561 C133.983398,4.6097561 135.121875,5.08780488 135.920508,6.04390244 C136.719141,7 137.126953,8.38292683 137.126953,10.1756098 L137.126953,10.9780488 L129.56543,10.9780488 C129.599414,12.0878049 129.922266,12.9756098 130.533984,13.6585366 C131.145703,14.3414634 131.927344,14.6829268 132.878906,14.6829268 C133.558594,14.6829268 134.119336,14.5463415 134.595117,14.2731707 C135.070898,14 135.478711,13.6243902 135.818555,13.1804878 L136.991016,14.0853659 C136.073437,15.5365854 134.663086,16.2536585 132.793945,16.2536585 Z M132.556055,6.19756098 C131.791406,6.19756098 131.145703,6.48780488 130.618945,7.05121951 C130.092187,7.61463415 129.769336,8.4 129.650391,9.42439024 L135.24082,9.42439024 L135.24082,9.27073171 C135.189844,8.29756098 134.917969,7.54634146 134.45918,7 C133.983398,6.47073171 133.354687,6.19756098 132.556055,6.19756098 Z" id="Shape"></path>
                        <path d="M138.894141,10.3463415 C138.894141,8.62195122 139.301953,7.23902439 140.117578,6.19756098 C140.933203,5.15609756 141.986719,4.62682927 143.312109,4.62682927 C144.620508,4.62682927 145.657031,5.07073171 146.42168,5.97560976 L146.42168,0.119512195 L148.324805,0.119512195 L148.324805,16.0487805 L146.574609,16.0487805 L146.489648,14.8536585 C145.725,15.7926829 144.654492,16.2707317 143.295117,16.2707317 C142.003711,16.2707317 140.950195,15.7414634 140.13457,14.6658537 C139.318945,13.5902439 138.911133,12.2073171 138.911133,10.5 L138.911133,10.3463415 L138.894141,10.3463415 Z M140.814258,10.5682927 C140.814258,11.8487805 141.069141,12.8390244 141.595898,13.5560976 C142.122656,14.2731707 142.836328,14.6317073 143.770898,14.6317073 C144.977344,14.6317073 145.860937,14.0853659 146.42168,12.9926829 L146.42168,7.83658537 C145.843945,6.77804878 144.977344,6.24878049 143.787891,6.24878049 C142.85332,6.24878049 142.122656,6.60731707 141.595898,7.34146341 C141.069141,8.05853659 140.814258,9.13414634 140.814258,10.5682927 Z" id="Shape"></path>
                        <path d="M151.298438,1.86097561 C151.298438,1.55365854 151.400391,1.2804878 151.587305,1.07560976 C151.774219,0.853658537 152.063086,0.751219512 152.436914,0.751219512 C152.810742,0.751219512 153.082617,0.853658537 153.286523,1.07560976 C153.473438,1.29756098 153.575391,1.55365854 153.575391,1.86097561 C153.575391,2.16829268 153.473438,2.42439024 153.286523,2.64634146 C153.099609,2.85121951 152.810742,2.95365854 152.436914,2.95365854 C152.063086,2.95365854 151.791211,2.85121951 151.587305,2.64634146 C151.383398,2.42439024 151.298438,2.16829268 151.298438,1.86097561 Z M153.354492,16.0487805 L151.451367,16.0487805 L151.451367,4.83170732 L153.354492,4.83170732 L153.354492,16.0487805 Z" id="Shape"></path>
                        <path d="M163.311914,16.0487805 C163.209961,15.8268293 163.108008,15.4341463 163.040039,14.8707317 C162.156445,15.7926829 161.085938,16.2536585 159.8625,16.2536585 C158.758008,16.2536585 157.857422,15.9463415 157.160742,15.3146341 C156.44707,14.6829268 156.107227,13.897561 156.107227,12.9414634 C156.107227,11.7804878 156.549023,10.8585366 157.432617,10.2268293 C158.316211,9.57804878 159.556641,9.25365854 161.170898,9.25365854 L163.023047,9.25365854 L163.023047,8.36585366 C163.023047,7.7 162.819141,7.15365854 162.42832,6.76097561 C162.0375,6.36829268 161.442773,6.16341463 160.661133,6.16341463 C159.981445,6.16341463 159.403711,6.33414634 158.944922,6.67560976 C158.486133,7.01707317 158.248242,7.44390244 158.248242,7.93902439 L156.328125,7.93902439 C156.328125,7.37560976 156.532031,6.84634146 156.922852,6.31707317 C157.313672,5.78780488 157.857422,5.37804878 158.537109,5.07073171 C159.216797,4.76341463 159.964453,4.6097561 160.780078,4.6097561 C162.071484,4.6097561 163.074023,4.93414634 163.804688,5.58292683 C164.535352,6.23170732 164.90918,7.1195122 164.943164,8.24634146 L164.943164,13.4195122 C164.943164,14.4439024 165.079102,15.2634146 165.333984,15.8780488 L165.333984,16.0487805 L163.311914,16.0487805 Z M160.134375,14.597561 C160.729102,14.597561 161.306836,14.4439024 161.833594,14.1365854 C162.377344,13.8292683 162.751172,13.4195122 163.006055,12.9243902 L163.006055,10.6195122 L161.510742,10.6195122 C159.16582,10.6195122 157.993359,11.302439 157.993359,12.6853659 C157.993359,13.2829268 158.197266,13.7609756 158.588086,14.102439 C158.995898,14.4268293 159.522656,14.597561 160.134375,14.597561 Z" id="Shape"></path>
                    </g>
                    <g id="Group" transform="translate(166.353516, 0.000000)" fill-rule="nonzero">
                        <polygon id="Shape" points="3.14355469 0.563414634 1.88613281 0.563414634 1.88613281 4.06341463 1.37636719 4.06341463 1.37636719 0.563414634 0.118945312 0.563414634 0.118945312 0.136585366 3.1265625 0.136585366 3.1265625 0.563414634"></polygon>
                        <polygon id="Shape" points="4.38398437 0.136585366 5.65839844 3.32926829 6.9328125 0.136585366 7.59550781 0.136585366 7.59550781 4.04634146 7.08574219 4.04634146 7.08574219 2.52682927 7.13671875 0.887804878 5.86230469 4.06341463 5.47148438 4.06341463 4.19707031 0.904878049 4.24804688 2.54390244 4.24804688 4.06341463 3.73828125 4.06341463 3.73828125 0.153658537 4.38398437 0.153658537"></polygon>
                    </g>
                </g>
            </g>
        </g>
    </g>
</svg>